SplineFontDB: 3.0
FontName: HorevCLM-Heavy
FullName: Horev CLM Heavy
FamilyName: Horev CLM
Weight: Heavy
Copyright: Copyright 2011 by Maxim Iorsh (iorsh@users.sourceforge.net). Distributed under the terms of GNU General Public License version 2(http://www.gnu.org/licenses/gpl-2.0.html). All rights reserved.
UComments: "2008-4-4: Created." 
Version: 1.01
ItalicAngle: 0
UnderlinePosition: -100
UnderlineWidth: 50
Ascent: 700
Descent: 300
LayerCount: 2
Layer: 0 0 "Back"  1
Layer: 1 0 "Fore"  0
XUID: [1021 50 1840131271 4387328]
FSType: 0
OS2Version: 0
OS2_WeightWidthSlopeOnly: 0
OS2_UseTypoMetrics: 1
CreationTime: 1207340925
ModificationTime: 1324415691
PfmFamily: 33
TTFWeight: 800
TTFWidth: 3
LineGap: 90
VLineGap: 0
OS2TypoAscent: 0
OS2TypoAOffset: 1
OS2TypoDescent: 0
OS2TypoDOffset: 1
OS2TypoLinegap: 90
OS2WinAscent: 700
OS2WinAOffset: 0
OS2WinDescent: 300
OS2WinDOffset: 0
HheadAscent: 0
HheadAOffset: 1
HheadDescent: 0
HheadDOffset: 1
OS2Vendor: 'PfEd'
Lookup: 258 9 0 "'kern' Horizontal Kerning lookup 0"  {"'kern' Horizontal Kerning lookup 0-1" [150,15,4] } ['kern' ('hebr' <'dflt' > ) ]
MarkAttachClasses: 1
DEI: 91125
ShortTable: maxp 16
  0
  0
  0
  0
  0
  0
  0
  2
  1
  0
  20
  0
  256
  0
  0
  0
EndShort
TtTable: prep
PUSHW_1
 511
SCANCTRL
PUSHB_1
 1
SCANTYPE
SVTCA[y-axis]
MPPEM
PUSHB_1
 8
LT
IF
PUSHB_2
 1
 1
INSTCTRL
EIF
PUSHB_2
 70
 6
CALL
IF
POP
PUSHB_1
 16
EIF
MPPEM
PUSHB_1
 20
GT
IF
POP
PUSHB_1
 128
EIF
SCVTCI
PUSHB_1
 6
CALL
NOT
IF
EIF
EndTTInstrs
TtTable: fpgm
PUSHB_1
 0
FDEF
PUSHB_1
 0
SZP0
MPPEM
PUSHB_1
 42
LT
IF
PUSHB_1
 74
SROUND
EIF
PUSHB_1
 0
SWAP
MIAP[rnd]
RTG
PUSHB_1
 6
CALL
IF
RTDG
EIF
MPPEM
PUSHB_1
 42
LT
IF
RDTG
EIF
DUP
MDRP[rp0,rnd,grey]
PUSHB_1
 1
SZP0
MDAP[no-rnd]
RTG
ENDF
PUSHB_1
 1
FDEF
DUP
MDRP[rp0,min,white]
PUSHB_1
 12
CALL
ENDF
PUSHB_1
 2
FDEF
MPPEM
GT
IF
RCVT
SWAP
EIF
POP
ENDF
PUSHB_1
 3
FDEF
ROUND[Black]
RTG
DUP
PUSHB_1
 64
LT
IF
POP
PUSHB_1
 64
EIF
ENDF
PUSHB_1
 4
FDEF
PUSHB_1
 6
CALL
IF
POP
SWAP
POP
ROFF
IF

StartChar: afii57664
Encoding: 1488 1488 0
Width: 295
Flags: W
HStem: 0 21G<25 125 179.175 290> 480 20G<10 120.673>
VStem: 25 100<0 206> 174 100<293.355 550>
LayerCount: 2
Back
SplineSet
125 167 m 1
 125 0 l 1
 25 0 l 1
 25 210 l 2
 25 256.644 38.874 288.026 75.0713 302.812 c 1
 10 500 l 1
 45 500 80 500 115 500 c 1
 164.001 327.5 l 1
 164.001 550 l 1
 264 550 l 1
 264 299.5 l 2
 264 251.278 244.852 219.469 213.087 202.766 c 1
 280 0 l 1
 245 0 210 0 175 0 c 1
 125 167 l 1
EndSplineSet
Fore
SplineSet
125 206 m 1
 125 0 l 1
 25 0 l 1
 25 210 l 2
 25 257 39 288 75 303 c 1
 10 500 l 1
 45 500 80 500 115 500 c 1
 174 292 l 1
 174 550 l 1
 274 550 l 1
 274 300 l 2
 274 252 255 220 223 203 c 1
 290 0 l 1
 255 0 220 0 185 0 c 1
 125 206 l 1
EndSplineSet
Validated: 3073
PairPos2: "'kern' Horizontal Kerning lookup 0-1" question dx=-5 dy=0 dh=-5 dv=0 dx=0 dy=0 dh=0 dv=0
PairPos2: "'kern' Horizontal Kerning lookup 0-1" afii57645 dx=-10 dy=0 dh=-10 dv=0 dx=0 dy=0 dh=0 dv=0
PairPos2: "'kern' Horizontal Kerning lookup 0-1" afii57685 dx=-5 dy=0 dh=-5 dv=0 dx=0 dy=0 dh=0 dv=0
PairPos2: "'kern' Horizontal Kerning lookup 0-1" afii57673 dx=-5 dy=0 dh=-5 dv=0 dx=0 dy=0 dh=0 dv=0
PairPos2: "'kern' Horizontal Kerning lookup 0-1" afii57676 dx=-10 dy=0 dh=-10 dv=0 dx=0 dy=0 dh=0 dv=0
EndChar

StartChar: afii57669
Encoding: 1493 1493 1
Width: 175
Flags: HMW
HStem: 0 21G<55 155> 480 20G<10 59.5>
VStem: 10 20 55 100<0 391.763>
LayerCount: 2
Fore
SplineSet
55 364 m 2
 55 379 52 387 47 392 c 0
 42 397 33 400 19 400 c 10
 19 400 10 400 10 400 c 25
 10 500 l 25
 39 500 l 2
 80 500 109 494 129 474 c 0
 149 454 155 427 155 384 c 2
 155 0 l 25
 55 0 l 25
 55 364 l 2
EndSplineSet
Validated: 3073
PairPos2: "'kern' Horizontal Kerning lookup 0-1" question dx=15 dy=0 dh=15 dv=0 dx=0 dy=0 dh=0 dv=0
PairPos2: "'kern' Horizontal Kerning lookup 0-1" hyphen dx=-25 dy=0 dh=-25 dv=0 dx=0 dy=0 dh=0 dv=0
PairPos2: "'kern' Horizontal Kerning lookup 0-1" period dx=-30 dy=0 dh=-30 dv=0 dx=0 dy=0 dh=0 dv=0
PairPos2: "'kern' Horizontal Kerning lookup 0-1" comma dx=-30 dy=0 dh=-30 dv=0 dx=0 dy=0 dh=0 dv=0
PairPos2: "'kern' Horizontal Kerning lookup 0-1" afii57645 dx=15 dy=0 dh=15 dv=0 dx=0 dy=0 dh=0 dv=0
PairPos2: "'kern' Horizontal Kerning lookup 0-1" afii57681 dx=-5 dy=0 dh=-5 dv=0 dx=0 dy=0 dh=0 dv=0
PairPos2: "'kern' Horizontal Kerning lookup 0-1" afii57670 dx=10 dy=0 dh=10 dv=0 dx=0 dy=0 dh=0 dv=0
PairPos2: "'kern' Horizontal Kerning lookup 0-1" afii57667 dx=10 dy=0 dh=10 dv=0 dx=0 dy=0 dh=0 dv=0
PairPos2: "'kern' Horizontal Kerning lookup 0-1" afii57665 dx=-15 dy=0 dh=-15 dv=0 dx=0 dy=0 dh=0 dv=0
EndChar

StartChar: afii57670
Encoding: 1494 1494 3
Width: 191
Flags: W
HStem: 0 21G<43 143> 400 100<10 64 143 176>
VStem: 10 166<400 500> 43 100<0 399.29>
LayerCount: 2
Fore
SplineSet
143 0 m 25xd0
 43 0 l 25
 43 321 l 18xd0
 43 360 49 385 64 400 c 1
 10 400 l 9
 10 500 l 25
 176 500 l 25
 176 400 l 25xe0
 143 400 l 25
 143 0 l 25xd0
EndSplineSet
Validated: 3073
PairPos2: "'kern' Horizontal Kerning lookup 0-1" question dx=15 dy=0 dh=15 dv=0 dx=0 dy=0 dh=0 dv=0
PairPos2: "'kern' Horizontal Kerning lookup 0-1" hyphen dx=-15 dy=0 dh=-15 dv=0 dx=0 dy=0 dh=0 dv=0
PairPos2: "'kern' Horizontal Kerning lookup 0-1" period dx=-15 dy=0 dh=-15 dv=0 dx=0 dy=0 dh=0 dv=0
PairPos2: "'kern' Horizontal Kerning lookup 0-1" comma dx=-15 dy=0 dh=-15 dv=0 dx=0 dy=0 dh=0 dv=0
PairPos2: "'kern' Horizontal Kerning lookup 0-1" afii57645 dx=15 dy=0 dh=15 dv=0 dx=0 dy=0 dh=0 dv=0
PairPos2: "'kern' Horizontal Kerning lookup 0-1" afii57670 dx=10 dy=0 dh=10 dv=0 dx=0 dy=0 dh=0 dv=0
PairPos2: "'kern' Horizontal Kerning lookup 0-1" afii57667 dx=10 dy=0 dh=10 dv=0 dx=0 dy=0 dh=0 dv=0
PairPos2: "'kern' Horizontal Kerning lookup 0-1" afii57665 dx=-15 dy=0 dh=-15 dv=0 dx=0 dy=0 dh=0 dv=0
EndChar

StartChar: afii57675
Encoding: 1499 1499 4
Width: 245
Flags: MW
HStem: 0 100<10 112.622> 400 100<10 112.622>
VStem: 10 20 140 95<127.071 372.929>
LayerCount: 2
Back
SplineSet
235.008 226.086 m 2
 235.008 142.184 226.714 90.707 200.564 51.4805 c 0
 174.417 12.2578 137.646 0 84 0 c 2
 10 0 l 25
 10 100 l 17
 27.3574 100 38.127 99.8066 38.127 99.8066 c 22
 75.2705 99.8066 98.7607 108.443 113.571 128.193 c 4
 128.385 147.941 135 173.859 135 228.971 c 6
 135 271.029 l 6
 135 326.141 128.385 352.059 113.571 371.807 c 4
 98.7607 391.557 75.2705 400.193 38.127 400.193 c 14
 38.127 400.193 27.3574 400 10 400 c 9
 10 500 l 25
 84 500 l 2
 137.646 500 174.417 487.742 200.564 448.52 c 0
 226.714 409.293 235.008 357.816 235.008 273.914 c 2
 235.008 226.086 l 2
EndSplineSet
Fore
SplineSet
235 226 m 2
 235 142 227 90 201 51 c 0
 175 12 138 0 84 0 c 2
 10 0 l 25
 10 100 l 17
 43 100 l 18
 80 100 104 108 119 128 c 0
 134 148 140 174 140 229 c 2
 140 271 l 2
 140 326 134 352 119 372 c 0
 104 392 80 400 43 400 c 10
 43 400 27 400 10 400 c 9
 10 500 l 25
 84 500 l 2
 138 500 175 488 201 449 c 0
 227 410 235 358 235 274 c 2
 235 226 l 2
EndSplineSet
Validated: 3073
PairPos2: "'kern' Horizontal Kerning lookup 0-1" question dx=15 dy=0 dh=15 dv=0 dx=0 dy=0 dh=0 dv=0
PairPos2: "'kern' Horizontal Kerning lookup 0-1" hyphen dx=-10 dy=0 dh=-10 dv=0 dx=0 dy=0 dh=0 dv=0
PairPos2: "'kern' Horizontal Kerning lookup 0-1" period dx=15 dy=0 dh=15 dv=0 dx=0 dy=0 dh=0 dv=0
PairPos2: "'kern' Horizontal Kerning lookup 0-1" comma dx=15 dy=0 dh=15 dv=0 dx=0 dy=0 dh=0 dv=0
PairPos2: "'kern' Horizontal Kerning lookup 0-1" afii57645 dx=15 dy=0 dh=15 dv=0 dx=0 dy=0 dh=0 dv=0
PairPos2: "'kern' Horizontal Kerning lookup 0-1" afii57670 dx=10 dy=0 dh=10 dv=0 dx=0 dy=0 dh=0 dv=0
PairPos2: "'kern' Horizontal Kerning lookup 0-1" afii57667 dx=10 dy=0 dh=10 dv=0 dx=0 dy=0 dh=0 dv=0
PairPos2: "'kern' Horizontal Kerning lookup 0-1" afii57665 dx=5 dy=0 dh=5 dv=0 dx=0 dy=0 dh=0 dv=0
EndChar

StartChar: afii57684
Encoding: 1508 1508 5
Width: 294
Flags: W
HStem: 0 100<20 163.669> 400 100<20 49 120 163.668>
VStem: 20 100<279.204 392.221> 174 100<110.33 389.67>
LayerCount: 2
Back
SplineSet
30 100 m 10
 137.5 100 l 2
 155.383 100 166.694 103.117 173.824 110.25 c 0
 180.958 117.382 184.143 126.74 184.143 146.643 c 10
 184 353.5 l 2
 183.986 373.402 180.815 382.761 173.682 389.893 c 0
 166.552 397.025 155.24 400.362 137.357 400.143 c 2
 130 399.84 l 25
 130 308.504 l 2
 130 288.504 141 276.004 157 276.004 c 9
 157 201.76 l 17
 144.217 190.264 127.61 184.004 108 184.004 c 0
 60 184.004 30 221.504 30 281.504 c 2
 30 500 l 25
 79.2275 500.014 106.997 500.035 156.225 500.035 c 16
 201.618 500.035 232.73 493.121 254.855 470.995 c 0
 276.982 448.866 284.043 419.831 284 372.5 c 2
 283.775 127.535 l 18
 283.791 80.2051 276.758 51.168 254.631 29.04 c 0
 232.506 6.91504 201.394 0 156 0 c 8
 106.86 0 79.1396 0 30 0 c 25
 30 100 l 10
EndSplineSet
Fore
SplineSet
20 400 m 1
 20 500 l 9
 69 500 97 500 146 500 c 16
 191 500 223 493 245 471 c 0
 267 449 274 419 274 372 c 2
 274 128 l 18
 274 81 267 51 245 29 c 0
 223 7 191 0 146 0 c 8
 97 0 69 0 20 0 c 25
 20 100 l 25
 128 100 l 2
 146 100 157 103 164 110 c 0
 171 117 174 127 174 147 c 10
 174 354 l 2
 174 374 171 383 164 390 c 0
 157 397 145 400 127 400 c 2
 120 400 l 25
 120 309 l 2
 120 289 131 276 147 276 c 9
 147 202 l 17
 134 191 118 184 98 184 c 0
 50 184 20 222 20 282 c 2
 20 314 l 2
 20 356 29 383 49 400 c 1
 31 400 38 400 20 400 c 1
EndSplineSet
Validated: 3073
PairPos2: "'kern' Horizontal Kerning lookup 0-1" question dx=5 dy=0 dh=5 dv=0 dx=0 dy=0 dh=0 dv=0
PairPos2: "'kern' Horizontal Kerning lookup 0-1" afii57645 dx=5 dy=0 dh=5 dv=0 dx=0 dy=0 dh=0 dv=0
PairPos2: "'kern' Horizontal Kerning lookup 0-1" quotesingle dx=-10 dy=0 dh=-10 dv=0 dx=0 dy=0 dh=0 dv=0
PairPos2: "'kern' Horizontal Kerning lookup 0-1" quotedbl dx=-10 dy=0 dh=-10 dv=0 dx=0 dy=0 dh=0 dv=0
PairPos2: "'kern' Horizontal Kerning lookup 0-1" period dx=5 dy=0 dh=5 dv=0 dx=0 dy=0 dh=0 dv=0
PairPos2: "'kern' Horizontal Kerning lookup 0-1" comma dx=5 dy=0 dh=5 dv=0 dx=0 dy=0 dh=0 dv=0
EndChar

StartChar: afii57671
Encoding: 1495 1495 6
Width: 299
Flags: MW
HStem: 0 21G<30 130 179 279> 400 100<10 52 130 170.763>
VStem: 10 10 30 100<0 399.29> 179 100<0 391.763>
LayerCount: 2
Back
SplineSet
100 477.84 m 1
 115.43 493.268 139.538 500.018 178.591 500.018 c 9
 196.059 500 l 2
 239.086 499.984 265.484 493.62 285.6 473.505 c 0
 305.714 453.391 312.053 425.105 312 383.84 c 2
 312 0 l 25
 212 0 l 25
 212 354.99 l 2
 212 372.347 209 383.062 202.144 389.919 c 0
 195.286 396.775 186.286 399.84 167.15 399.84 c 2
 100 399.84 l 25
 100 0 l 25
 0 0 l 25
 0 600 l 25
 100 600 l 17
 100 477.84 l 1
EndSplineSet
Fore
SplineSet
30 322 m 2
 30 360 37 385 52 400 c 1
 38 400 24 400 10 400 c 1
 10 500 l 1
 30 500 l 9
 82 500 111 500 163 500 c 16
 204 500 233 494 253 474 c 0
 273 454 279 427 279 384 c 2
 279 0 l 25
 179 0 l 25
 179 364 l 2
 179 379 176 387 171 392 c 0
 166 397 157 400 143 400 c 2
 130 400 l 25
 130 0 l 25
 30 0 l 17
 30 322 l 2
EndSplineSet
Validated: 3073
PairPos2: "'kern' Horizontal Kerning lookup 0-1" question dx=15 dy=0 dh=15 dv=0 dx=0 dy=0 dh=0 dv=0
PairPos2: "'kern' Horizontal Kerning lookup 0-1" hyphen dx=-5 dy=0 dh=-5 dv=0 dx=0 dy=0 dh=0 dv=0
PairPos2: "'kern' Horizontal Kerning lookup 0-1" period dx=-5 dy=0 dh=-5 dv=0 dx=0 dy=0 dh=0 dv=0
PairPos2: "'kern' Horizontal Kerning lookup 0-1" comma dx=-5 dy=0 dh=-5 dv=0 dx=0 dy=0 dh=0 dv=0
PairPos2: "'kern' Horizontal Kerning lookup 0-1" afii57645 dx=15 dy=0 dh=15 dv=0 dx=0 dy=0 dh=0 dv=0
PairPos2: "'kern' Horizontal Kerning lookup 0-1" afii57670 dx=10 dy=0 dh=10 dv=0 dx=0 dy=0 dh=0 dv=0
PairPos2: "'kern' Horizontal Kerning lookup 0-1" afii57667 dx=10 dy=0 dh=10 dv=0 dx=0 dy=0 dh=0 dv=0
EndChar

StartChar: afii57687
Encoding: 1511 1511 7
Width: 285
Flags: W
HStem: 0 21G<165 265> 400 100<25 154.669>
VStem: 25 100<-150 320> 165 100<0 389.67>
LayerCount: 2
Fore
SplineSet
125 320 m 17
 125 -150 l 25
 25 -150 l 25
 25 320 l 25
 125 320 l 17
265 0 m 29
 165 0 l 29
 165 355 l 6
 165 374 162 383 155 390 c 4
 148 397 137 400 120 400 c 6
 25 400 l 25
 25 500 l 25
 149 500 l 6
 190 500 219 494 239 474 c 4
 259 454 265 427 265 384 c 6
 265 0 l 29
EndSplineSet
Validated: 3073
PairPos2: "'kern' Horizontal Kerning lookup 0-1" quotesingle dx=-15 dy=0 dh=-15 dv=0 dx=0 dy=0 dh=0 dv=0
PairPos2: "'kern' Horizontal Kerning lookup 0-1" quotedbl dx=-15 dy=0 dh=-15 dv=0 dx=0 dy=0 dh=0 dv=0
EndChar

StartChar: afii57680
Encoding: 1504 1504 8
Width: 196
Flags: W
HStem: 0 100<20 76> 400 100<20 65.6689>
VStem: 20 156<0 100 400 469.18> 76 100<100 389.671>
LayerCount: 2
Back
SplineSet
80.666 465.334 m 9
 38.8486 521.14 l 17
 71.7108 509.731 104.996 501.396 139.163 494.648 c 0
 147.418 493.017 155.297 491.063 162.929 488.704 c 0
 191.642 479.826 216.842 465.209 239 443.104 c 0
 285.571 396.643 288.849 328.23 291.5 250.004 c 0
 294.5 161.504 297.957 93.541 303 30.0039 c 1
 272.308 -0.688477 l 1
 166.835 -1.9541 105.747 -5.46484 39 -15 c 9
 84 30 l 17
 139.506 19.5928 184.293 15.9727 260.865 14.9971 c 1
 266.571 84.2803 268.096 166.865 269 250.002 c 0
 270 342 259.856 398.481 225 433 c 0
 187.816 469.82 139.038 475.903 80.666 465.334 c 9
EndSplineSet
Fore
SplineSet
176 384 m 2xd0
 176 0 l 25
 20 0 l 21
 20 100 l 1xe0
 76 100 l 1
 76 356 l 2xd0
 76 375 73 383 66 390 c 0
 59 397 48 400 31 400 c 2
 20 400 l 25
 20 500 l 25xe0
 60 500 l 2
 101 500 130 494 150 474 c 0
 170 454 176 427 176 384 c 2xd0
EndSplineSet
Validated: 3073
PairPos2: "'kern' Horizontal Kerning lookup 0-1" question dx=5 dy=0 dh=5 dv=0 dx=0 dy=0 dh=0 dv=0
PairPos2: "'kern' Horizontal Kerning lookup 0-1" hyphen dx=-25 dy=0 dh=-25 dv=0 dx=0 dy=0 dh=0 dv=0
PairPos2: "'kern' Horizontal Kerning lookup 0-1" afii57645 dx=5 dy=0 dh=5 dv=0 dx=0 dy=0 dh=0 dv=0
PairPos2: "'kern' Horizontal Kerning lookup 0-1" quotesingle dx=-10 dy=0 dh=-10 dv=0 dx=0 dy=0 dh=0 dv=0
PairPos2: "'kern' Horizontal Kerning lookup 0-1" quotedbl dx=-10 dy=0 dh=-10 dv=0 dx=0 dy=0 dh=0 dv=0
PairPos2: "'kern' Horizontal Kerning lookup 0-1" period dx=5 dy=0 dh=5 dv=0 dx=0 dy=0 dh=0 dv=0
PairPos2: "'kern' Horizontal Kerning lookup 0-1" comma dx=5 dy=0 dh=5 dv=0 dx=0 dy=0 dh=0 dv=0
PairPos2: "'kern' Horizontal Kerning lookup 0-1" afii57681 dx=-5 dy=0 dh=-5 dv=0 dx=0 dy=0 dh=0 dv=0
PairPos2: "'kern' Horizontal Kerning lookup 0-1" afii57672 dx=-5 dy=0 dh=-5 dv=0 dx=0 dy=0 dh=0 dv=0
PairPos2: "'kern' Horizontal Kerning lookup 0-1" afii57675 dx=-15 dy=0 dh=-15 dv=0 dx=0 dy=0 dh=0 dv=0
EndChar

StartChar: afii57688
Encoding: 1512 1512 9
Width: 253
Flags: MW
HStem: 0 21G<133 233> 400 100<10 122.669>
VStem: 10 20 133 100<0 389.67>
LayerCount: 2
Back
SplineSet
389 312.085 m 2
 390.801 42 l 2
 390.897 27.5176 384.363 15.751 372.784 10.5 c 2
 347.75 -0.851562 l 2
 335.209 -6.53809 321.25 0 317.25 8.5 c 0
 313.636 16.1797 313.216 24.4863 314 39 c 2
 328.5 307.434 l 2
 330.204 335.699 325.251 363.085 310.745 381.2 c 0
 293.689 402.503 260.665 410 228.845 410 c 2
 71.5 410 l 2
 57.5 410 46.667 418.925 43.5 433 c 2
 34.5 473 l 2
 31.0605 488.288 41.5 500 58 500 c 2
 189.5 500 l 2
 240.5 500 285.476 495.732 319 477.5 c 0
 347.5 462 367.396 439.459 376.5 416.5 c 0
 388 387.5 388.757 348.495 389 312.085 c 2
EndSplineSet
Fore
SplineSet
233 0 m 29
 133 0 l 29
 133 355 l 6
 133 374 130 383 123 390 c 4
 116 397 105 400 88 400 c 6
 10 400 l 25
 10 500 l 25
 117 500 l 6
 158 500 187 494 207 474 c 4
 227 454 233 427 233 384 c 6
 233 0 l 29
EndSplineSet
Validated: 3073
PairPos2: "'kern' Horizontal Kerning lookup 0-1" question dx=15 dy=0 dh=15 dv=0 dx=0 dy=0 dh=0 dv=0
PairPos2: "'kern' Horizontal Kerning lookup 0-1" hyphen dx=-10 dy=0 dh=-10 dv=0 dx=0 dy=0 dh=0 dv=0
PairPos2: "'kern' Horizontal Kerning lookup 0-1" period dx=-50 dy=0 dh=-50 dv=0 dx=0 dy=0 dh=0 dv=0
PairPos2: "'kern' Horizontal Kerning lookup 0-1" comma dx=-50 dy=0 dh=-50 dv=0 dx=0 dy=0 dh=0 dv=0
PairPos2: "'kern' Horizontal Kerning lookup 0-1" afii57645 dx=15 dy=0 dh=15 dv=0 dx=0 dy=0 dh=0 dv=0
PairPos2: "'kern' Horizontal Kerning lookup 0-1" afii57670 dx=10 dy=0 dh=10 dv=0 dx=0 dy=0 dh=0 dv=0
PairPos2: "'kern' Horizontal Kerning lookup 0-1" afii57667 dx=10 dy=0 dh=10 dv=0 dx=0 dy=0 dh=0 dv=0
PairPos2: "'kern' Horizontal Kerning lookup 0-1" afii57665 dx=-15 dy=0 dh=-15 dv=0 dx=0 dy=0 dh=0 dv=0
EndChar

StartChar: afii57666
Encoding: 1490 1490 10
Width: 270
Flags: MW
HStem: 0 21G<150 250> 159 80<72.5 149.668> 400 100<57 139.669>
VStem: 15 100<-50 157.557> 57 20 150 100<0 158.993 220 389.67>
LayerCount: 2
Back
SplineSet
157.82 220.244 m 1
 157.82 355.15 l 2
 157.82 374.286 154.756 383.286 147.899 390.144 c 0
 141.042 397 130.327 400 112.97 400 c 2
 64.8203 400 l 25
 64.8203 500 l 25
 141.82 500 l 2
 183.086 500 211.371 493.714 231.485 473.6 c 0
 251.6 453.484 257.979 427.086 257.98 384.059 c 2
 257.998 0 l 25
 157.82 0 l 17
 157.82 137 l 2
 157.82 147 152.82 153.25 144.82 153.25 c 0
 136.82 153.25 131.82 147 131.82 137 c 2
 131.82 -50 l 25
 30.8203 -50 l 25
 30.8203 140.5 l 2
 30.8203 200.5 60.8203 238 108.82 238 c 0
 128.43 238 145.037 231.74 157.82 220.244 c 1
EndSplineSet
Fore
SplineSet
150 220 m 1
 150 355 l 2
 150 374 147 383 140 390 c 0
 133 397 122 400 105 400 c 2
 57 400 l 25
 57 500 l 25
 134 500 l 2
 175 500 203 494 223 474 c 0
 243 454 250 426 250 384 c 2
 250 0 l 25
 150 0 l 17
 150 137 l 2
 150 150 143 159 132 159 c 0
 121 159 115 150 115 137 c 2
 115 -50 l 25
 15 -50 l 25
 15 135 l 2
 15 198 47 239 98 239 c 0
 119 239 136 232 150 220 c 1
EndSplineSet
Validated: 8391681
PairPos2: "'kern' Horizontal Kerning lookup 0-1" question dx=-30 dy=0 dh=-30 dv=0 dx=0 dy=0 dh=0 dv=0
PairPos2: "'kern' Horizontal Kerning lookup 0-1" hyphen dx=-5 dy=0 dh=-5 dv=0 dx=0 dy=0 dh=0 dv=0
PairPos2: "'kern' Horizontal Kerning lookup 0-1" afii57645 dx=-30 dy=0 dh=-30 dv=0 dx=0 dy=0 dh=0 dv=0
PairPos2: "'kern' Horizontal Kerning lookup 0-1" quotesingle dx=-47 dy=0 dh=-47 dv=0 dx=0 dy=0 dh=0 dv=0
PairPos2: "'kern' Horizontal Kerning lookup 0-1" quotedbl dx=-47 dy=0 dh=-47 dv=0 dx=0 dy=0 dh=0 dv=0
PairPos2: "'kern' Horizontal Kerning lookup 0-1" period dx=10 dy=0 dh=10 dv=0 dx=0 dy=0 dh=0 dv=0
PairPos2: "'kern' Horizontal Kerning lookup 0-1" comma dx=10 dy=0 dh=10 dv=0 dx=0 dy=0 dh=0 dv=0
PairPos2: "'kern' Horizontal Kerning lookup 0-1" afii57686 dx=-5 dy=0 dh=-5 dv=0 dx=0 dy=0 dh=0 dv=0
PairPos2: "'kern' Horizontal Kerning lookup 0-1" afii57664 dx=-5 dy=0 dh=-5 dv=0 dx=0 dy=0 dh=0 dv=0
PairPos2: "'kern' Horizontal Kerning lookup 0-1" afii57689 dx=-10 dy=0 dh=-10 dv=0 dx=0 dy=0 dh=0 dv=0
PairPos2: "'kern' Horizontal Kerning lookup 0-1" afii57685 dx=-15 dy=0 dh=-15 dv=0 dx=0 dy=0 dh=0 dv=0
PairPos2: "'kern' Horizontal Kerning lookup 0-1" afii57681 dx=-5 dy=0 dh=-5 dv=0 dx=0 dy=0 dh=0 dv=0
PairPos2: "'kern' Horizontal Kerning lookup 0-1" afii57676 dx=-35 dy=0 dh=-35 dv=0 dx=0 dy=0 dh=0 dv=0
PairPos2: "'kern' Horizontal Kerning lookup 0-1" afii57673 dx=-35 dy=0 dh=-35 dv=0 dx=0 dy=0 dh=0 dv=0
PairPos2: "'kern' Horizontal Kerning lookup 0-1" afii57670 dx=-25 dy=0 dh=-25 dv=0 dx=0 dy=0 dh=0 dv=0
PairPos2: "'kern' Horizontal Kerning lookup 0-1" afii57667 dx=-25 dy=0 dh=-25 dv=0 dx=0 dy=0 dh=0 dv=0
EndChar

StartChar: afii57678
Encoding: 1502 1502 11
Width: 299
Flags: MW
HStem: 0 21G<26 126 152 279> 400 100<138.321 211.398>
VStem: 26 100<0 410.662 467 500> 152 127<0 100> 178 101<100 407.981>
LayerCount: 2
Back
SplineSet
130.998 500 m 25
 130.998 483.614 l 1
 146.398 497.464 166.405 505.005 190.029 505.005 c 4
 247.855 505.005 283.996 459.828 283.997 387.545 c 2
 284 0 l 25
 157 0 l 17
 157 100 l 1
 182.999 100 l 1
 182.998 378.5 l 2
 182.998 398.499 172.998 411 156.998 411 c 0
 140.998 411 130.998 398.5 130.998 378.5 c 2
 130.998 0 l 9
 30.8203 0 l 25
 30.8379 500 l 25
 130.998 500 l 25
EndSplineSet
Fore
SplineSet
126 467 m 5xf0
 140 491 164 505 194 505 c 0
 246 505 279 464 279 399 c 2xe8
 279 0 l 25
 152 0 l 17
 152 100 l 1xf0
 178 100 l 1
 178 378 l 2xe8
 178 398 168 411 152 411 c 0
 136 411 126 398 126 378 c 6
 126 0 l 13
 26 0 l 29
 26 500 l 29
 126 500 l 29
 126 467 l 5xf0
EndSplineSet
Validated: 3073
PairPos2: "'kern' Horizontal Kerning lookup 0-1" quotesingle dx=-15 dy=0 dh=-15 dv=0 dx=0 dy=0 dh=0 dv=0
PairPos2: "'kern' Horizontal Kerning lookup 0-1" quotedbl dx=-15 dy=0 dh=-15 dv=0 dx=0 dy=0 dh=0 dv=0
EndChar

StartChar: afii57682
Encoding: 1506 1506 12
Width: 304
Flags: W
HStem: 0 100<10 40 126 175.762> 480 20G<40 140>
VStem: 40 100<101.033 500> 184 100<108.237 550>
LayerCount: 2
Back
SplineSet
143.121 99.999 m 2
 156.499 99.998 165.578 102.397 171.063 107.884 c 0
 176.55 113.37 179 120.568 179 135.878 c 2
 179.004 550 l 25
 279.004 550 l 25
 279.08 115.941 l 2
 279.088 72.9141 272.7 46.5166 252.585 26.4004 c 0
 232.471 6.28613 204.187 0 162.92 0 c 10
 10 0 l 1
 10 100 l 1
 40 100 l 1
 40 500 l 9
 140 500 l 17
 140 179 l 2
 140 147 136.5 121.5 126.5 100 c 1
 143.121 99.999 l 2
EndSplineSet
Fore
SplineSet
148 100 m 2
 161 100 171 103 176 108 c 0
 181 113 184 121 184 136 c 2
 184 550 l 25
 284 550 l 25
 284 139 l 2
 284 87 276 56 252 32 c 0
 228 8 194 0 144 0 c 10
 10 0 l 1
 10 100 l 1
 40 100 l 1
 40 500 l 13
 140 500 l 17
 140 179 l 2
 140 147 136 122 126 100 c 1
 148 100 l 2
EndSplineSet
Validated: 3073
PairPos2: "'kern' Horizontal Kerning lookup 0-1" question dx=-15 dy=0 dh=-15 dv=0 dx=0 dy=0 dh=0 dv=0
PairPos2: "'kern' Horizontal Kerning lookup 0-1" hyphen dx=-15 dy=0 dh=-15 dv=0 dx=0 dy=0 dh=0 dv=0
PairPos2: "'kern' Horizontal Kerning lookup 0-1" afii57645 dx=-15 dy=0 dh=-15 dv=0 dx=0 dy=0 dh=0 dv=0
PairPos2: "'kern' Horizontal Kerning lookup 0-1" quotesingle dx=-30 dy=0 dh=-30 dv=0 dx=0 dy=0 dh=0 dv=0
PairPos2: "'kern' Horizontal Kerning lookup 0-1" quotedbl dx=-30 dy=0 dh=-30 dv=0 dx=0 dy=0 dh=0 dv=0
PairPos2: "'kern' Horizontal Kerning lookup 0-1" period dx=15 dy=0 dh=15 dv=0 dx=0 dy=0 dh=0 dv=0
PairPos2: "'kern' Horizontal Kerning lookup 0-1" comma dx=15 dy=0 dh=15 dv=0 dx=0 dy=0 dh=0 dv=0
PairPos2: "'kern' Horizontal Kerning lookup 0-1" afii57675 dx=-5 dy=0 dh=-5 dv=0 dx=0 dy=0 dh=0 dv=0
PairPos2: "'kern' Horizontal Kerning lookup 0-1" afii57670 dx=-5 dy=0 dh=-5 dv=0 dx=0 dy=0 dh=0 dv=0
PairPos2: "'kern' Horizontal Kerning lookup 0-1" afii57685 dx=-20 dy=0 dh=-20 dv=0 dx=0 dy=0 dh=0 dv=0
PairPos2: "'kern' Horizontal Kerning lookup 0-1" afii57676 dx=-20 dy=0 dh=-20 dv=0 dx=0 dy=0 dh=0 dv=0
PairPos2: "'kern' Horizontal Kerning lookup 0-1" afii57673 dx=-10 dy=0 dh=-10 dv=0 dx=0 dy=0 dh=0 dv=0
PairPos2: "'kern' Horizontal Kerning lookup 0-1" afii57667 dx=-15 dy=0 dh=-15 dv=0 dx=0 dy=0 dh=0 dv=0
EndChar

StartChar: afii57683
Encoding: 1507 1507 13
Width: 294
Flags: W
HStem: 400 100<20 49 120 165.763>
VStem: 20 100<279.204 392.221> 174 100<-150 391.763>
LayerCount: 2
Back
SplineSet
130 399.84 m 29
 148.121 400.001 l 2
 161.877 400.17 170.578 397.603 176.063 392.116 c 0
 181.55 386.63 184 379.432 184 364.122 c 2
 184.004 -150 l 25
 284.004 -150 l 25
 284.08 384.059 l 2
 284.086 427.086 277.7 453.483 257.585 473.6 c 0
 237.471 493.714 209.187 500 167.92 500 c 8
 114.131 500 83.7891 500 30 500 c 29
 30 281.504 l 6
 30 221.504 60 184.004 108 184.004 c 4
 127.61 184.004 144.217 190.264 157 201.76 c 13
 157 276.004 l 21
 141 276.004 130 288.504 130 308.504 c 6
 130 399.84 l 29
EndSplineSet
Fore
SplineSet
20 400 m 5
 20 500 l 9
 74 500 104 500 158 500 c 16
 199 500 228 494 248 474 c 0
 268 454 274 427 274 384 c 2
 274 -150 l 25
 174 -150 l 25
 174 364 l 2
 174 379 171 387 166 392 c 0
 161 397 152 400 138 400 c 2
 120 400 l 25
 120 309 l 2
 120 289 131 276 147 276 c 9
 147 202 l 17
 134 191 118 184 98 184 c 0
 50 184 20 222 20 282 c 2
 20 314 l 6
 20 356 29 383 49 400 c 5
 31 400 38 400 20 400 c 5
EndSplineSet
Validated: 3073
PairPos2: "'kern' Horizontal Kerning lookup 0-1" question dx=5 dy=0 dh=5 dv=0 dx=0 dy=0 dh=0 dv=0
PairPos2: "'kern' Horizontal Kerning lookup 0-1" afii57645 dx=5 dy=0 dh=5 dv=0 dx=0 dy=0 dh=0 dv=0
PairPos2: "'kern' Horizontal Kerning lookup 0-1" quotesingle dx=-10 dy=0 dh=-10 dv=0 dx=0 dy=0 dh=0 dv=0
PairPos2: "'kern' Horizontal Kerning lookup 0-1" quotedbl dx=-10 dy=0 dh=-10 dv=0 dx=0 dy=0 dh=0 dv=0
PairPos2: "'kern' Horizontal Kerning lookup 0-1" period dx=-50 dy=0 dh=-50 dv=0 dx=0 dy=0 dh=0 dv=0
PairPos2: "'kern' Horizontal Kerning lookup 0-1" comma dx=-50 dy=0 dh=-50 dv=0 dx=0 dy=0 dh=0 dv=0
EndChar

StartChar: afii57681
Encoding: 1505 1505 14
Width: 302
Flags: W
HStem: -7 103<131.267 180.733> 400 100<10 52 130 173.763>
VStem: 30 100<98.786 399.29> 182 100<98.786 391.763>
LayerCount: 2
Fore
SplineSet
30 321 m 2
 30 360 37 385 52 400 c 1
 38 400 24 400 10 400 c 1
 10 500 l 1
 30 500 l 9
 83 500 113 500 166 500 c 16
 207 500 236 494 256 474 c 0
 276 454 282 427 282 384 c 2
 282 138 l 18
 282 49 234 -7 156 -7 c 0
 78 -7 30 49 30 138 c 6
 30 321 l 2
182 128 m 10
 182 364 l 2
 182 379 179 387 174 392 c 0
 169 397 160 400 146 400 c 2
 130 400 l 25
 130 128 l 18
 130 108 140 96 156 96 c 0
 172 96 182 108 182 128 c 10
EndSplineSet
Validated: 3073
PairPos2: "'kern' Horizontal Kerning lookup 0-1" question dx=15 dy=0 dh=15 dv=0 dx=0 dy=0 dh=0 dv=0
PairPos2: "'kern' Horizontal Kerning lookup 0-1" hyphen dx=-5 dy=0 dh=-5 dv=0 dx=0 dy=0 dh=0 dv=0
PairPos2: "'kern' Horizontal Kerning lookup 0-1" period dx=-15 dy=0 dh=-15 dv=0 dx=0 dy=0 dh=0 dv=0
PairPos2: "'kern' Horizontal Kerning lookup 0-1" comma dx=-10 dy=0 dh=-10 dv=0 dx=0 dy=0 dh=0 dv=0
PairPos2: "'kern' Horizontal Kerning lookup 0-1" afii57645 dx=15 dy=0 dh=15 dv=0 dx=0 dy=0 dh=0 dv=0
PairPos2: "'kern' Horizontal Kerning lookup 0-1" afii57670 dx=10 dy=0 dh=10 dv=0 dx=0 dy=0 dh=0 dv=0
PairPos2: "'kern' Horizontal Kerning lookup 0-1" afii57667 dx=10 dy=0 dh=10 dv=0 dx=0 dy=0 dh=0 dv=0
EndChar

StartChar: afii57689
Encoding: 1513 1513 15
Width: 415
Flags: W
HStem: 0 100<137.379 280.528> 136 81<125.399 202.5> 480 20G<25 125 295 395>
VStem: 25 100<112.284 155 217.006 500> 160 100<217.443 550> 295 100<114.471 500>
CounterMasks: 1 1c
LayerCount: 2
Back
SplineSet
125.212 155 m 1
 125.36 152.144 125.25 145.25 125.25 145.25 c 2
 125.315 128.502 130.997 117.735 136.906 111.827 c 0
 145.135 103.6 157.994 100 178.821 100 c 2
 241.5 100 l 2
 262.33 100 275.188 103.6 283.415 111.828 c 0
 291.644 120.057 295.174 130.856 295.174 153.819 c 2
 295 500 l 9
 395 500 l 25
 395.142 165.796 l 2
 395.14 104.267 386.42 66.5176 357.656 37.752 c 0
 328.894 8.98926 288.444 0 229.436 0 c 2
 191.08 0 l 2
 132.069 0 91.6221 8.98926 62.8584 37.752 c 0
 34.0947 66.5166 25.2031 104.267 25.2021 165.796 c 2
 25 500 l 25
 124.998 500 l 17
 124.998 238.5 l 2
 124.998 225.048 131.904 216.641 142.665 216.641 c 0
 153.427 216.641 159.998 225.051 159.998 238.5 c 2
 159.998 550 l 25
 259.998 550 l 25
 259.998 240.023 l 2
 259.998 176.999 228.289 136.382 177.265 136.382 c 0
 161.757 136.382 142.125 140.125 125.212 155 c 1
EndSplineSet
Fore
SplineSet
125 155 m 1
 125 145 l 2
 125 128 131 118 137 112 c 0
 145 104 158 100 179 100 c 2
 231 100 l 2
 256 100 271 104 281 114 c 0
 291 124 295 137 295 165 c 2
 295 500 l 9
 395 500 l 25
 395 166 l 2
 395 104 387 67 358 38 c 0
 329 9 288 0 229 0 c 2
 191 0 l 2
 132 0 92 9 63 38 c 0
 34 67 25 104 25 166 c 2
 25 500 l 25
 125 500 l 17
 125 238 l 2
 125 225 132 217 143 217 c 0
 154 217 160 225 160 238 c 2
 160 550 l 25
 260 550 l 25
 260 240 l 2
 260 177 228 136 177 136 c 0
 161 136 142 140 125 155 c 1
EndSplineSet
Validated: 3073
PairPos2: "'kern' Horizontal Kerning lookup 0-1" quotesingle dx=-15 dy=0 dh=-15 dv=0 dx=0 dy=0 dh=0 dv=0
PairPos2: "'kern' Horizontal Kerning lookup 0-1" quotedbl dx=-15 dy=0 dh=-15 dv=0 dx=0 dy=0 dh=0 dv=0
PairPos2: "'kern' Horizontal Kerning lookup 0-1" period dx=-10 dy=0 dh=-10 dv=0 dx=0 dy=0 dh=0 dv=0
PairPos2: "'kern' Horizontal Kerning lookup 0-1" comma dx=-5 dy=0 dh=-5 dv=0 dx=0 dy=0 dh=0 dv=0
PairPos2: "'kern' Horizontal Kerning lookup 0-1" afii57665 dx=-10 dy=0 dh=-10 dv=0 dx=0 dy=0 dh=0 dv=0
EndChar

StartChar: afii57672
Encoding: 1496 1496 16
Width: 297
Flags: W
HStem: -7 103<126.267 175.733> 485 20G<189 223>
VStem: 25 100<99.3867 550> 150 127<393 479> 177 100<99.3867 392.541>
LayerCount: 2
Fore
SplineSet
125 550 m 25xe8
 125 128 l 18
 125 108 135 96 151 96 c 0
 167 96 177 108 177 128 c 10
 177 360 l 2xe8
 177 380 166 393 150 393 c 9
 150 487 l 17
 163 498 179 505 199 505 c 0
 247 505 277 468 277 408 c 2xf0
 277 139 l 18
 277 49 229 -7 151 -7 c 0
 73 -7 25 49 25 139 c 10
 25 550 l 25
 125 550 l 25xe8
EndSplineSet
Validated: 3073
PairPos2: "'kern' Horizontal Kerning lookup 0-1" quotesingle dx=-15 dy=0 dh=-15 dv=0 dx=0 dy=0 dh=0 dv=0
PairPos2: "'kern' Horizontal Kerning lookup 0-1" quotedbl dx=-15 dy=0 dh=-15 dv=0 dx=0 dy=0 dh=0 dv=0
PairPos2: "'kern' Horizontal Kerning lookup 0-1" period dx=-10 dy=0 dh=-10 dv=0 dx=0 dy=0 dh=0 dv=0
PairPos2: "'kern' Horizontal Kerning lookup 0-1" comma dx=-5 dy=0 dh=-5 dv=0 dx=0 dy=0 dh=0 dv=0
PairPos2: "'kern' Horizontal Kerning lookup 0-1" afii57665 dx=-19 dy=0 dh=-19 dv=0 dx=0 dy=0 dh=0 dv=0
EndChar

StartChar: afii57686
Encoding: 1510 1510 17
Width: 280
Flags: W
HStem: 0 100<15 136> 480 20G<0 106.344>
VStem: 159 100<314 550>
LayerCount: 2
Back
SplineSet
15 0 m 1
 15 100 l 1
 136 100 l 1
 0 500 l 1
 100 500 l 1
 154.001 329.5 l 1
 154.001 550 l 1
 254 550 l 1
 254 299.5 l 2
 254 253.629 235.406 218.126 201.327 201.979 c 1
 270 0 l 1
 185 0 100 0 15 0 c 1
EndSplineSet
Fore
SplineSet
15 0 m 1
 15 100 l 1
 136 100 l 1
 0 500 l 1
 100 500 l 1
 159 314 l 1
 159 550 l 1
 259 550 l 1
 259 300 l 2
 259 254 239 214 201 202 c 1
 270 0 l 1
 185 0 100 0 15 0 c 1
EndSplineSet
Validated: 3073
PairPos2: "'kern' Horizontal Kerning lookup 0-1" hyphen dx=-20 dy=0 dh=-20 dv=0 dx=0 dy=0 dh=0 dv=0
PairPos2: "'kern' Horizontal Kerning lookup 0-1" quotesingle dx=10 dy=0 dh=10 dv=0 dx=0 dy=0 dh=0 dv=0
PairPos2: "'kern' Horizontal Kerning lookup 0-1" quotedbl dx=10 dy=0 dh=10 dv=0 dx=0 dy=0 dh=0 dv=0
PairPos2: "'kern' Horizontal Kerning lookup 0-1" period dx=10 dy=0 dh=10 dv=0 dx=0 dy=0 dh=0 dv=0
PairPos2: "'kern' Horizontal Kerning lookup 0-1" comma dx=10 dy=0 dh=10 dv=0 dx=0 dy=0 dh=0 dv=0
PairPos2: "'kern' Horizontal Kerning lookup 0-1" afii57681 dx=-10 dy=0 dh=-10 dv=0 dx=0 dy=0 dh=0 dv=0
PairPos2: "'kern' Horizontal Kerning lookup 0-1" afii57676 dx=-5 dy=0 dh=-5 dv=0 dx=0 dy=0 dh=0 dv=0
PairPos2: "'kern' Horizontal Kerning lookup 0-1" afii57672 dx=-10 dy=0 dh=-10 dv=0 dx=0 dy=0 dh=0 dv=0
EndChar

StartChar: afii57667
Encoding: 1491 1491 18
Width: 268
Flags: MW
HStem: 0 21G<120 220> 400 100<10 141 220 253>
VStem: 10 20 120 100<0 399.29> 233 20
LayerCount: 2
Back
SplineSet
460 500 m 9
 460 487 l 17
 414 487 383.688 449.202 383.655 388.304 c 10
 383.5 172.5 l 18
 383.476 138.499 396 114.5 424 97 c 9
 375 0 l 25
 367.5 0 l 25
 367.5 484 l 25
 190.563 483.88 l 18
 156 483.856 129 468.5 112.5 444 c 9
 30 492 l 25
 30 500 l 17
 460 500 l 9
EndSplineSet
Fore
SplineSet
220 0 m 25
 120 0 l 25
 120 321 l 18
 120 360 126 385 141 400 c 1
 10 400 l 9
 10 500 l 25
 253 500 l 25
 253 400 l 25
 220 400 l 25
 220 0 l 25
EndSplineSet
Validated: 8391681
PairPos2: "'kern' Horizontal Kerning lookup 0-1" question dx=15 dy=0 dh=15 dv=0 dx=0 dy=0 dh=0 dv=0
PairPos2: "'kern' Horizontal Kerning lookup 0-1" hyphen dx=-10 dy=0 dh=-10 dv=0 dx=0 dy=0 dh=0 dv=0
PairPos2: "'kern' Horizontal Kerning lookup 0-1" period dx=-50 dy=0 dh=-50 dv=0 dx=0 dy=0 dh=0 dv=0
PairPos2: "'kern' Horizontal Kerning lookup 0-1" comma dx=-50 dy=0 dh=-50 dv=0 dx=0 dy=0 dh=0 dv=0
PairPos2: "'kern' Horizontal Kerning lookup 0-1" afii57645 dx=15 dy=0 dh=15 dv=0 dx=0 dy=0 dh=0 dv=0
PairPos2: "'kern' Horizontal Kerning lookup 0-1" afii57670 dx=10 dy=0 dh=10 dv=0 dx=0 dy=0 dh=0 dv=0
PairPos2: "'kern' Horizontal Kerning lookup 0-1" afii57667 dx=10 dy=0 dh=10 dv=0 dx=0 dy=0 dh=0 dv=0
PairPos2: "'kern' Horizontal Kerning lookup 0-1" afii57665 dx=-20 dy=0 dh=-20 dv=0 dx=0 dy=0 dh=0 dv=0
EndChar

StartChar: afii57668
Encoding: 1492 1492 19
Width: 288
Flags: W
HStem: 0 21G<25 125 168 268> 400 100<25 157.669>
VStem: 25 100<0 320> 168 100<0 389.67>
LayerCount: 2
Fore
SplineSet
125 320 m 17
 125 0 l 25
 25 0 l 25
 25 320 l 25
 125 320 l 17
268 0 m 29
 168 0 l 29
 168 355 l 6
 168 374 165 383 158 390 c 4
 151 397 140 400 123 400 c 6
 25 400 l 25
 25 500 l 25
 152 500 l 6
 193 500 222 494 242 474 c 4
 262 454 268 427 268 384 c 6
 268 0 l 29
EndSplineSet
Validated: 3073
PairPos2: "'kern' Horizontal Kerning lookup 0-1" quotesingle dx=-15 dy=0 dh=-15 dv=0 dx=0 dy=0 dh=0 dv=0
PairPos2: "'kern' Horizontal Kerning lookup 0-1" quotedbl dx=-15 dy=0 dh=-15 dv=0 dx=0 dy=0 dh=0 dv=0
EndChar

StartChar: afii57679
Encoding: 1503 1503 20
Width: 175
Flags: HMW
HStem: 480 20G<10 59.5>
VStem: 10 20 55 100<-150 391.763>
LayerCount: 2
Back
SplineSet
116.5 327.5 m 22
 116.5 370.206 101 394 70 410 c 13
 122.5 500 l 29
 130 500 l 29
 129.845 -27.5 l 22
 129.703 -61.5 142.345 -85.5 170.345 -103 c 13
 124 -200 l 29
 116.5 -200 l 29
 116.5 327.5 l 22
EndSplineSet
Fore
SplineSet
55 364 m 2
 55 379 52 387 47 392 c 0
 42 397 33 400 19 400 c 10
 19 400 10 400 10 400 c 25
 10 500 l 25
 39 500 l 2
 80 500 109 494 129 474 c 0
 149 454 155 427 155 384 c 2
 155 -150 l 25
 55 -150 l 25
 55 364 l 2
EndSplineSet
Validated: 3073
PairPos2: "'kern' Horizontal Kerning lookup 0-1" question dx=15 dy=0 dh=15 dv=0 dx=0 dy=0 dh=0 dv=0
PairPos2: "'kern' Horizontal Kerning lookup 0-1" hyphen dx=-25 dy=0 dh=-25 dv=0 dx=0 dy=0 dh=0 dv=0
PairPos2: "'kern' Horizontal Kerning lookup 0-1" period dx=-30 dy=0 dh=-30 dv=0 dx=0 dy=0 dh=0 dv=0
PairPos2: "'kern' Horizontal Kerning lookup 0-1" comma dx=-30 dy=0 dh=-30 dv=0 dx=0 dy=0 dh=0 dv=0
PairPos2: "'kern' Horizontal Kerning lookup 0-1" afii57645 dx=15 dy=0 dh=15 dv=0 dx=0 dy=0 dh=0 dv=0
EndChar

StartChar: afii57665
Encoding: 1489 1489 21
Width: 268
Flags: MW
HStem: 0 100<10 138 216 253> 400 100<10 127.669>
VStem: 10 20 138 100<100.71 389.67>
LayerCount: 2
Back
SplineSet
216 100 m 1
 231.428 115.43 238.178 139.538 238.178 178.591 c 9
 238.118 355.181 l 6
 238.1 408.965 230.144 441.963 205 467.106 c 4
 179.857 492.249 144.5 500.173 92.9189 500.106 c 6
 10 500 l 25
 10 400 l 25
 93.1504 400 l 2
 110.507 400 121.222 397 128.079 390.144 c 0
 134.936 383.286 138 374.286 138 355.15 c 2
 138 100 l 25
 10 100 l 25
 10 0 l 25
 253 0 l 25
 253 100 l 17
 216 100 l 1
EndSplineSet
Fore
SplineSet
216 100 m 1
 253 100 l 9
 253 0 l 25
 10 0 l 25
 10 100 l 25
 138 100 l 25
 138 355 l 2
 138 374 135 383 128 390 c 0
 121 397 110 400 93 400 c 2
 10 400 l 25
 10 500 l 25
 122 500 l 2
 163 500 192 494 212 474 c 0
 232 454 238 427 238 384 c 2
 238 179 l 18
 238 140 231 115 216 100 c 1
EndSplineSet
Validated: 3073
PairPos2: "'kern' Horizontal Kerning lookup 0-1" question dx=15 dy=0 dh=15 dv=0 dx=0 dy=0 dh=0 dv=0
PairPos2: "'kern' Horizontal Kerning lookup 0-1" hyphen dx=-10 dy=0 dh=-10 dv=0 dx=0 dy=0 dh=0 dv=0
PairPos2: "'kern' Horizontal Kerning lookup 0-1" period dx=15 dy=0 dh=15 dv=0 dx=0 dy=0 dh=0 dv=0
PairPos2: "'kern' Horizontal Kerning lookup 0-1" comma dx=15 dy=0 dh=15 dv=0 dx=0 dy=0 dh=0 dv=0
PairPos2: "'kern' Horizontal Kerning lookup 0-1" afii57645 dx=15 dy=0 dh=15 dv=0 dx=0 dy=0 dh=0 dv=0
PairPos2: "'kern' Horizontal Kerning lookup 0-1" afii57670 dx=10 dy=0 dh=10 dv=0 dx=0 dy=0 dh=0 dv=0
PairPos2: "'kern' Horizontal Kerning lookup 0-1" afii57667 dx=10 dy=0 dh=10 dv=0 dx=0 dy=0 dh=0 dv=0
PairPos2: "'kern' Horizontal Kerning lookup 0-1" afii57665 dx=5 dy=0 dh=5 dv=0 dx=0 dy=0 dh=0 dv=0
EndChar

StartChar: afii57674
Encoding: 1498 1498 22
Width: 275
Flags: MW
HStem: 400 100<10 139.528>
VStem: 10 20 155 100<-150 385.53>
LayerCount: 2
Back
SplineSet
54.875 364.121 m 2
 54.876 379.43 52.4248 386.629 46.9385 392.115 c 0
 41.4531 397.601 32.7529 400 18.9961 400 c 10
 18.9961 400 -72.6426 400 -90 400 c 9
 -90 500 l 25
 38.8496 500 l 2
 80.1152 500 108.401 493.714 128.515 473.6 c 0
 148.63 453.484 155.008 427.086 155.01 384.059 c 2
 155.028 0 l 25
 54.8496 0 l 17
 54.8496 118.384 54.875 364.121 54.875 364.121 c 2
EndSplineSet
Fore
SplineSet
155 336 m 2
 155 364 150 376 140 386 c 0
 130 396 115 400 90 400 c 10
 90 400 27 400 10 400 c 9
 10 500 l 25
 104 500 l 2
 158 500 195 492 221 466 c 0
 247 440 255 405 255 349 c 2
 255 -150 l 25
 155 -150 l 17
 155 336 l 2
EndSplineSet
Validated: 3073
PairPos2: "'kern' Horizontal Kerning lookup 0-1" question dx=15 dy=0 dh=15 dv=0 dx=0 dy=0 dh=0 dv=0
PairPos2: "'kern' Horizontal Kerning lookup 0-1" hyphen dx=-10 dy=0 dh=-10 dv=0 dx=0 dy=0 dh=0 dv=0
PairPos2: "'kern' Horizontal Kerning lookup 0-1" period dx=-50 dy=0 dh=-50 dv=0 dx=0 dy=0 dh=0 dv=0
PairPos2: "'kern' Horizontal Kerning lookup 0-1" comma dx=-50 dy=0 dh=-50 dv=0 dx=0 dy=0 dh=0 dv=0
PairPos2: "'kern' Horizontal Kerning lookup 0-1" afii57645 dx=15 dy=0 dh=15 dv=0 dx=0 dy=0 dh=0 dv=0
EndChar

StartChar: afii57673
Encoding: 1497 1497 23
Width: 170
Flags: HMW
HStem: 250 250<55 124.146>
VStem: 10 20 55 100<250 391.763>
LayerCount: 2
Back
SplineSet
107.643 381 m 0
 107.643 331.929 100.479 288.516 92.6582 235 c 9
 137.658 280 l 17
 126.158 315 122.522 350.305 122.158 386.5 c 0
 122 429.466 124.158 475 130.5 515 c 9
 70 485 l 17
 114 474 107.643 408 107.643 381 c 0
EndSplineSet
Fore
SplineSet
55 364 m 2
 55 379 52 387 47 392 c 0
 42 397 33 400 19 400 c 10
 19 400 10 400 10 400 c 25
 10 500 l 25
 39 500 l 2
 80 500 109 494 129 474 c 0
 149 454 155 427 155 384 c 2
 155 250 l 25
 55 250 l 25
 55 250 55 364 55 364 c 2
EndSplineSet
Validated: 3073
PairPos2: "'kern' Horizontal Kerning lookup 0-1" question dx=15 dy=0 dh=15 dv=0 dx=0 dy=0 dh=0 dv=0
PairPos2: "'kern' Horizontal Kerning lookup 0-1" hyphen dx=-25 dy=0 dh=-25 dv=0 dx=0 dy=0 dh=0 dv=0
PairPos2: "'kern' Horizontal Kerning lookup 0-1" period dx=-30 dy=0 dh=-30 dv=0 dx=0 dy=0 dh=0 dv=0
PairPos2: "'kern' Horizontal Kerning lookup 0-1" comma dx=-30 dy=0 dh=-30 dv=0 dx=0 dy=0 dh=0 dv=0
PairPos2: "'kern' Horizontal Kerning lookup 0-1" afii57645 dx=15 dy=0 dh=15 dv=0 dx=0 dy=0 dh=0 dv=0
PairPos2: "'kern' Horizontal Kerning lookup 0-1" afii57667 dx=10 dy=0 dh=10 dv=0 dx=0 dy=0 dh=0 dv=0
PairPos2: "'kern' Horizontal Kerning lookup 0-1" afii57675 dx=-5 dy=0 dh=-5 dv=0 dx=0 dy=0 dh=0 dv=0
PairPos2: "'kern' Horizontal Kerning lookup 0-1" afii57670 dx=10 dy=0 dh=10 dv=0 dx=0 dy=0 dh=0 dv=0
PairPos2: "'kern' Horizontal Kerning lookup 0-1" afii57665 dx=-15 dy=0 dh=-15 dv=0 dx=0 dy=0 dh=0 dv=0
EndChar

StartChar: afii57676
Encoding: 1500 1500 24
Width: 274
Flags: MW
HStem: 0 21G<54 163.399> 400 100<110 145.669> 580 20G<10 110>
VStem: 10 100<500 600>
LayerCount: 2
Back
SplineSet
165.572 387.338 m 0
 166.291 386.409 166.938 385.444 167.518 384.44 c 0
 172.366 376.042 173.011 366.553 168.044 348.072 c 2
 74.5 0 l 25
 178.5 0 l 29
 275.918 362.653 l 2
 287.08 404.206 287.724 431.364 273.5 456 c 0
 272.15 458.337 270.747 460.717 269.189 462.859 c 0
 266.547 466.649 263.551 470.214 260.165 473.6 c 0
 240.051 493.714 211.766 500.053 170.5 500 c 2
 130 500 l 1
 130 600 l 1
 30 600 l 9
 30 400 l 25
 128.15 400 l 2
 145.507 400 156.222 397 163.079 390.144 c 0
 163.973 389.25 164.802 388.319 165.572 387.338 c 0
EndSplineSet
Fore
SplineSet
146 387 m 0
 139 396 128 400 108 400 c 2
 10 400 l 25
 10 600 l 17
 110 600 l 1
 110 500 l 1
 150 500 l 2
 198 500 230 491 249 463 c 0
 267 438 268 408 256 363 c 2
 158 0 l 25
 54 0 l 29
 148 348 l 2
 153 368 153 378 146 387 c 0
EndSplineSet
Validated: 3105
PairPos2: "'kern' Horizontal Kerning lookup 0-1" question dx=15 dy=0 dh=15 dv=0 dx=0 dy=0 dh=0 dv=0
PairPos2: "'kern' Horizontal Kerning lookup 0-1" hyphen dx=-10 dy=0 dh=-10 dv=0 dx=0 dy=0 dh=0 dv=0
PairPos2: "'kern' Horizontal Kerning lookup 0-1" period dx=-35 dy=0 dh=-35 dv=0 dx=0 dy=0 dh=0 dv=0
PairPos2: "'kern' Horizontal Kerning lookup 0-1" comma dx=-35 dy=0 dh=-35 dv=0 dx=0 dy=0 dh=0 dv=0
PairPos2: "'kern' Horizontal Kerning lookup 0-1" afii57645 dx=15 dy=0 dh=15 dv=0 dx=0 dy=0 dh=0 dv=0
PairPos2: "'kern' Horizontal Kerning lookup 0-1" afii57670 dx=10 dy=0 dh=10 dv=0 dx=0 dy=0 dh=0 dv=0
PairPos2: "'kern' Horizontal Kerning lookup 0-1" afii57667 dx=10 dy=0 dh=10 dv=0 dx=0 dy=0 dh=0 dv=0
PairPos2: "'kern' Horizontal Kerning lookup 0-1" afii57665 dx=-15 dy=0 dh=-15 dv=0 dx=0 dy=0 dh=0 dv=0
EndChar

StartChar: afii57685
Encoding: 1509 1509 25
Width: 290
Flags: W
HStem: 102 92<125.398 201.5> 480 20G<25 125>
VStem: 25 100<-150 110 194 500> 170 100<198.564 550>
LayerCount: 2
Back
SplineSet
130 94.7236 m 5
 141.933 90.1826 155.162 87.8115 169.529 87.8115 c 4
 237.561 87.8115 280.016 140.961 280 226 c 2
 280.004 550 l 25
 180.004 550 l 25
 180 237.059 l 2
 180.005 210.809 166.613 193.982 145.074 193.982 c 0
 139.459 193.982 134.423 195.126 130 197.295 c 9
 130 500 l 25
 30 500 l 17
 30 333.333 30 16.667 30 -150 c 1
 130 -150 l 1
 130 94.7236 l 5
EndSplineSet
Fore
SplineSet
125 110 m 1
 125 -150 l 1
 25 -150 l 1
 25 17 25 333 25 500 c 9
 125 500 l 25
 125 196 l 17
 128 194 131 194 135 194 c 0
 157 194 170 211 170 237 c 2
 170 550 l 25
 270 550 l 25
 270 226 l 2
 270 149 232 102 171 102 c 0
 153 102 139 104 125 110 c 1
EndSplineSet
Validated: 3073
PairPos2: "'kern' Horizontal Kerning lookup 0-1" quotesingle dx=-15 dy=0 dh=-15 dv=0 dx=0 dy=0 dh=0 dv=0
PairPos2: "'kern' Horizontal Kerning lookup 0-1" quotedbl dx=-15 dy=0 dh=-15 dv=0 dx=0 dy=0 dh=0 dv=0
EndChar

StartChar: afii57677
Encoding: 1501 1501 26
Width: 299
Flags: W
HStem: 0 100<130 179> 400 100<10 52 130 170.763>
VStem: 30 100<100 399.29> 179 100<100 391.763>
LayerCount: 2
Back
SplineSet
115 10.5 m 1
 134.5 30 l 1
 214.5 15 338.5 15 455 15 c 1
 461 88.5 461.5 154.5 463 249.998 c 0
 464.158 323.701 447.856 397 413 431.518 c 0
 375.816 468.339 337.191 485 270.824 485 c 0
 248.789 485 144 482.5 95 470 c 9
 50 515 l 17
 115.5 502.5 228.677 500 271 499.996 c 0
 338.072 499.996 391 485 433 443.1 c 0
 479.571 396.639 482.848 328.227 485.5 250 c 0
 488.5 161.5 491.957 93.5371 497 30 c 1
 467.5 0 l 1
 294 0 167.507 -4.14648 91.5303 -15 c 1
 95.4385 84.668 93.7976 218.1 94.1992 329 c 0
 94.1992 397.713 133.8 459.8 183 485 c 9
 203 485 l 17
 147.8 447.8 115.4 395 115.4 330.199 c 0
 115.4 250.862 110.229 110.338 115 10.5 c 1
EndSplineSet
Fore
SplineSet
30 0 m 21
 30 322 l 2
 30 360 37 385 52 400 c 1
 38 400 24 400 10 400 c 1
 10 500 l 1
 30 500 l 9
 82 500 111 500 163 500 c 16
 204 500 233 494 253 474 c 0
 273 454 279 427 279 384 c 2
 279 0 l 25
 30 0 l 21
179 100 m 9
 179 364 l 2
 179 379 176 387 171 392 c 0
 166 397 157 400 143 400 c 2
 130 400 l 25
 130 100 l 17
 179 100 l 9
EndSplineSet
Validated: 3073
PairPos2: "'kern' Horizontal Kerning lookup 0-1" question dx=15 dy=0 dh=15 dv=0 dx=0 dy=0 dh=0 dv=0
PairPos2: "'kern' Horizontal Kerning lookup 0-1" period dx=-5 dy=0 dh=-5 dv=0 dx=0 dy=0 dh=0 dv=0
PairPos2: "'kern' Horizontal Kerning lookup 0-1" comma dx=-5 dy=0 dh=-5 dv=0 dx=0 dy=0 dh=0 dv=0
PairPos2: "'kern' Horizontal Kerning lookup 0-1" afii57645 dx=15 dy=0 dh=15 dv=0 dx=0 dy=0 dh=0 dv=0
EndChar

StartChar: afii57690
Encoding: 1514 1514 27
Width: 309
Flags: MW
HStem: 0 100<0 38.8096> 400 100<25 67 145 180.763>
VStem: 0 145<17.2566 100> 25 10 45 100<106.19 399.29> 189 100<0 391.763>
LayerCount: 2
Back
SplineSet
29.8467 135.879 m 2
 29.8066 120.57 27.3965 113.371 21.9102 107.885 c 0
 16.4248 102.399 7.72461 100 -6.03223 100 c 10
 -6.03223 100 2.3291 100 -15.0283 100 c 9
 -15.0283 0 l 25
 13.8213 0 l 2
 55.0869 0 83.373 6.28613 103.486 26.4004 c 0
 123.602 46.5156 129.974 72.9131 129.981 115.941 c 2
 130 399.84 l 25
 143.121 400.001 l 2
 156.878 400.084 165.578 397.603 171.063 392.116 c 0
 176.55 386.63 179 379.432 179 364.122 c 2
 179.004 0 l 25
 279.004 0 l 25
 279.08 384.059 l 2
 279.089 427.086 272.7 453.483 252.585 473.6 c 0
 232.471 493.714 204.187 500 162.92 500 c 8
 111.081 500 81.8389 500 30 500 c 17
 10 500 l 1
 10 400 l 1
 24.0596 400 38.1191 400 52.1787 400 c 1
 36.751 384.57 29.999 360.463 29.999 322.003 c 2
 29.8467 135.879 l 2
EndSplineSet
Fore
SplineSet
45 129 m 2xcc
 45 322 l 2
 45 360 52 385 67 400 c 1
 53 400 39 400 25 400 c 1
 25 500 l 1
 173 500 l 18
 214 500 243 494 263 474 c 0
 283 454 289 427 289 384 c 2
 289 0 l 25
 189 0 l 25
 189 364 l 2
 189 379 186 387 181 392 c 0
 176 397 167 400 153 400 c 2
 145 400 l 25xcc
 145 90 l 2
 145 56 140 34 124 18 c 0
 108 2 85 -5 52 -3 c 2
 0 0 l 25
 0 100 l 25xe4
 16 100 l 18
 27 100 35 102 39 106 c 0
 43 110 45 117 45 129 c 2xcc
EndSplineSet
Validated: 3105
PairPos2: "'kern' Horizontal Kerning lookup 0-1" hyphen dx=-20 dy=0 dh=-20 dv=0 dx=0 dy=0 dh=0 dv=0
PairPos2: "'kern' Horizontal Kerning lookup 0-1" quotesingle dx=-15 dy=0 dh=-15 dv=0 dx=0 dy=0 dh=0 dv=0
PairPos2: "'kern' Horizontal Kerning lookup 0-1" quotedbl dx=-15 dy=0 dh=-15 dv=0 dx=0 dy=0 dh=0 dv=0
PairPos2: "'kern' Horizontal Kerning lookup 0-1" period dx=25 dy=0 dh=25 dv=0 dx=0 dy=0 dh=0 dv=0
PairPos2: "'kern' Horizontal Kerning lookup 0-1" comma dx=25 dy=0 dh=25 dv=0 dx=0 dy=0 dh=0 dv=0
PairPos2: "'kern' Horizontal Kerning lookup 0-1" afii57687 dx=5 dy=0 dh=5 dv=0 dx=0 dy=0 dh=0 dv=0
PairPos2: "'kern' Horizontal Kerning lookup 0-1" afii57683 dx=5 dy=0 dh=5 dv=0 dx=0 dy=0 dh=0 dv=0
PairPos2: "'kern' Horizontal Kerning lookup 0-1" afii57680 dx=5 dy=0 dh=5 dv=0 dx=0 dy=0 dh=0 dv=0
PairPos2: "'kern' Horizontal Kerning lookup 0-1" afii57678 dx=5 dy=0 dh=5 dv=0 dx=0 dy=0 dh=0 dv=0
PairPos2: "'kern' Horizontal Kerning lookup 0-1" afii57665 dx=5 dy=0 dh=5 dv=0 dx=0 dy=0 dh=0 dv=0
PairPos2: "'kern' Horizontal Kerning lookup 0-1" afii57685 dx=-10 dy=0 dh=-10 dv=0 dx=0 dy=0 dh=0 dv=0
PairPos2: "'kern' Horizontal Kerning lookup 0-1" afii57676 dx=-10 dy=0 dh=-10 dv=0 dx=0 dy=0 dh=0 dv=0
PairPos2: "'kern' Horizontal Kerning lookup 0-1" afii57673 dx=-10 dy=0 dh=-10 dv=0 dx=0 dy=0 dh=0 dv=0
PairPos2: "'kern' Horizontal Kerning lookup 0-1" afii57668 dx=5 dy=0 dh=5 dv=0 dx=0 dy=0 dh=0 dv=0
EndChar

StartChar: zero
Encoding: 48 48 28
Width: 297
Flags: W
HStem: -7 103<126.267 175.733> 404 103<126.267 175.733>
VStem: 25 100<98.786 401.214> 177 100<98.786 401.214>
LayerCount: 2
Back
SplineSet
240.012 -7.49707 m 0
 180.307 -7.49609 133.2 7.95605 95.8193 51.1152 c 0
 54.3701 98.9727 42.458 169.259 42.458 250.035 c 0
 42.458 330.815 54.3711 401.099 95.8193 448.959 c 0
 133.2 492.123 180.307 507.571 240 507.571 c 0
 298.693 507.571 345.799 492.123 383.18 448.959 c 0
 424.628 401.099 436.541 330.815 436.541 250.035 c 0
 436.541 169.259 424.629 98.9727 383.18 51.1152 c 0
 345.799 7.95605 298.693 -7.49609 240.012 -7.49707 c 0
239.858 7.62891 m 0
 295.585 7.62988 330.206 24.792 362.539 62.7861 c 0
 396.344 102.508 406.039 173.967 406.039 249.98 c 0
 406.039 326 392.864 401.583 362.539 437.181 c 0
 330.189 475.154 296.585 492.337 240.153 492.337 c 0
 206.88 492.337 185.5 486.754 164 469.498 c 0
 145.801 454.892 132.5 436.001 132 393.369 c 9
 102 432.956 l 17
 79 378.144 72.96 316.646 72.96 249.98 c 0
 72.96 173.967 82.6553 102.508 116.46 62.7861 c 0
 148.793 24.792 182.414 7.62988 239.858 7.62891 c 0
EndSplineSet
Fore
SplineSet
277 362 m 6
 277 138 l 22
 277 49 229 -7 151 -7 c 4
 73 -7 25 49 25 138 c 6
 25 362 l 6
 25 451 73 507 151 507 c 4
 229 507 277 451 277 362 c 6
125 372 m 10
 125 128 l 18
 125 108 135 96 151 96 c 0
 167 96 177 108 177 128 c 10
 177 372 l 2
 177 392 167 404 151 404 c 0
 135 404 125 392 125 372 c 10
EndSplineSet
Validated: 3073
EndChar

StartChar: one
Encoding: 49 49 29
Width: 175
Flags: W
HStem: 0 21G<55 155> 400 100<10 55>
VStem: 10 145<400 500> 55 100<0 400>
LayerCount: 2
Back
SplineSet
180.658 392 m 0
 180.495 434.966 180.5 476.71 180.5 515 c 9
 0 424.5 l 17
 6 418.5 l 1
 150.5 476 166.709 464.99 165.5 391 c 0
 163 238 161.5 121.5 145.5 -15 c 9
 190.5 30 l 17
 180.5 111 181 302 180.658 392 c 0
EndSplineSet
Fore
SplineSet
55 400 m 25xd0
 55 400 27 400 10 400 c 9
 10 500 l 25
 155 500 l 25xe0
 155 0 l 25
 55 0 l 17
 55 400 l 25xd0
EndSplineSet
Validated: 3073
EndChar

StartChar: two
Encoding: 50 50 30
Width: 285
Flags: W
HStem: 0 100<142 276> 404 103<121.267 168.666>
VStem: 20 100<348 401.214> 172 100<290.234 402.445>
LayerCount: 2
Back
SplineSet
171.233 308.843 m 2
 175.018 314.248 177.004 321.679 177.004 330.5 c 2
 177.004 370.5 l 2
 177.004 390 167 402.5 151 402.5 c 0
 135 402.5 125 390 125 370 c 10
 125 345.5 l 25
 25 345.5 l 25
 25 359.5 l 18
 25.0996 448.75 73.4619 505 151 505 c 0
 228.539 505 277.004 448.25 277.004 359.5 c 2
 277.004 343.995 l 2
 277.004 304.517 267.33 271.431 249.971 246.636 c 2
 147.312 100 l 9
 280.998 100 l 25
 280.998 0 l 25
 25 0 l 25
 25 100 l 17
 60.3641 150.505 171.233 308.843 171.233 308.843 c 2
EndSplineSet
Fore
SplineSet
140 274 m 2
 150 289 161 304 167 322 c 0
 171 335 172 348 172 362 c 0
 172 386 167 404 146 404 c 0
 130 404 120 392 120 372 c 10
 120 348 l 25
 20 348 l 25
 20 362 l 18
 20 451 68 507 146 507 c 0
 224 507 272 451 272 362 c 0
 272 307 254 263 224 220 c 2
 142 100 l 9
 276 100 l 25
 276 0 l 25
 20 0 l 25
 20 100 l 17
 55 151 140 274 140 274 c 2
EndSplineSet
Validated: 3073
EndChar

StartChar: three
Encoding: 51 51 31
Width: 292
Flags: W
HStem: -7 103<126.267 175.733> 208 94<130 171.619> 404 103<126.267 175.733>
VStem: 25 100<97.2 142 358 402.601> 177 100<97.2 203.493 306.507 402.601>
LayerCount: 2
Back
SplineSet
218.883 250 m 1
 255.675 231.943 277 186.034 277 140.5 c 0
 277 51.7529 228.526 -7 150.988 -7 c 4
 73.4492 -7 25 50.252 25 138.5 c 6
 25 142.5 l 5
 124.984 142.5 l 5
 124.984 127.5 l 6
 124.984 108.499 134.988 95.5 150.988 95.5 c 4
 166.988 95.5 176.988 109 176.988 128 c 6
 176.988 149.505 l 2
 176.987 185.505 170 208.005 130.188 208.005 c 1
 130.188 301.995 l 1
 170.75 301.995 176.987 324.495 176.988 360.495 c 2
 176.988 372 l 2
 176.988 391 166.988 404.5 150.988 404.5 c 0
 134.988 404.5 124.984 391.501 124.984 372.5 c 2
 124.984 357.5 l 1
 25 357.5 l 1
 25 361.5 l 2
 25 449.748 73.4492 507 150.988 507 c 0
 228.525 507 277 448.248 277 359.5 c 0
 277 313.967 255.673 268.058 218.883 250 c 1
218.883 250 m 1
 255.675 231.943 277 186.034 277 140.5 c 0
 277 51.7529 228.526 -7 150.988 -7 c 4
 73.4492 -7 25 50.252 25 138.5 c 6
 25 142.5 l 5
 124.984 142.5 l 5
 124.984 127.5 l 6
 124.984 108.499 134.988 95.5 150.988 95.5 c 4
 166.988 95.5 176.988 109 176.988 128 c 6
 176.988 149.505 l 2
 176.987 185.505 170 208.005 130.188 208.005 c 1
 130.188 301.995 l 1
 170.75 301.995 176.987 324.495 176.988 360.495 c 2
 176.988 372 l 2
 176.988 391 166.988 404.5 150.988 404.5 c 0
 134.988 404.5 124.984 391.501 124.984 372.5 c 2
 124.984 357.5 l 1
 25 357.5 l 1
 25 361.5 l 2
 25 449.748 73.4492 507 150.988 507 c 0
 228.525 507 277 448.248 277 359.5 c 0
 277 313.967 255.673 268.058 218.883 250 c 1
EndSplineSet
Fore
SplineSet
25 142 m 25
 125 142 l 1
 125 128 l 2
 125 109 135 96 151 96 c 0
 167 96 177 109 177 128 c 2
 177 150 l 2
 177 186 170 208 130 208 c 5
 130 302 l 5
 171 302 177 324 177 360 c 6
 177 372 l 6
 177 391 167 404 151 404 c 4
 135 404 125 391 125 372 c 6
 125 358 l 5
 25 358 l 29
 25 389 l 6
 25 447 73 507 151 507 c 4
 229 507 277 447 277 389 c 6
 277 389 278 344 277 342 c 6
 277 310 256 266 219 250 c 5
 256 234 277 190 277 158 c 2
 277 111 l 2
 277 52 229 -7 151 -7 c 0
 73 -7 25 52 25 111 c 2
 25 142 l 25
EndSplineSet
Validated: 3105
EndChar

StartChar: four
Encoding: 52 52 32
Width: 295
Flags: W
HStem: 0 21G<175 275> 133 102<125 172.824> 480 20G<66.7123 170>
VStem: 175 100<0 157 235 400>
LayerCount: 2
Back
SplineSet
188.001 400 m 25
 288 400 l 17
 288 135.46 l 17
 288 0 l 1
 188 0 l 1
 188 14.0596 188 143.985 188 158.748 c 1
 172.57 142.549 148.462 135.459 110.003 135.459 c 2
 5 135.46 l 9
 105.04 500 l 25
 211.04 500 l 25
 133 235.46 l 9
 188 235.46 l 25
 188.001 400 l 25
EndSplineSet
Fore
SplineSet
175 400 m 25
 275 400 l 17
 275 135 l 17
 275 0 l 1
 175 0 l 1
 175 14 175 142 175 157 c 1
 160 141 135 132 97 133 c 2
 10 135 l 9
 70 500 l 25
 170 500 l 25
 125 235 l 9
 175 235 l 25
 175 400 l 25
EndSplineSet
Validated: 3105
EndChar

StartChar: five
Encoding: 53 53 33
Width: 292
Flags: W
HStem: -7 103<121.267 170.733> 257 86<123.176 206.5> 400 100<122 267>
VStem: 25 97<99.1197 142 225 256.782 322 400> 172 100<98.786 254.412>
LayerCount: 2
Fore
SplineSet
120 128 m 2
 120 109 130 96 146 96 c 0
 162 96 172 109 172 128 c 10
 172 225 l 2
 172 245 163 257 147 257 c 0
 131 257 122 245 122 225 c 9
 25 225 l 17
 25 500 l 9
 267 500 l 25
 267 400 l 17
 122 400 l 25
 122 322 l 1
 137 336 155 343 178 343 c 0
 235 343 271 297 272 226 c 2
 272 138 l 18
 272 49 224 -7 146 -7 c 0
 68 -7 20 50 20 138 c 2
 20 142 l 9
 120 142 l 25
 120 128 l 2
EndSplineSet
Validated: 3073
EndChar

StartChar: six
Encoding: 54 54 34
Width: 297
Flags: W
HStem: -7 103<126.267 175.733> 216 83<126.226 212.5> 404 103<126.267 175.733>
VStem: 25 100<99.1197 215.687 278 401.214> 177 100<98.786 213.37 348 401.214>
LayerCount: 2
Back
SplineSet
277.004 347.5 m 25
 176.988 347.5 l 25
 176.988 372 l 18
 176.988 392 166.988 404.5 150.988 404.5 c 0
 134.988 404.5 124.984 392 124.984 372.5 c 2
 124.984 272.744 l 5
 140.284 286.503 160.363 293.995 183.832 293.995 c 4
 241.282 293.995 276.974 248.263 276.983 177.303 c 6
 276.988 138.5 l 18
 276.993 49.75 228.526 -7 150.988 -7 c 0
 73.4492 -7 24.9844 50.25 24.9844 138.5 c 10
 24.9844 361.5 l 2
 24.9844 450.25 73.4492 507 150.988 507 c 0
 228.526 507 276.889 450.75 276.988 361.5 c 10
 277.004 347.5 l 25
176.988 128 m 10
 176.988 189 l 2
 176.988 209 166.988 221.5 150.988 221.5 c 0
 134.988 221.5 124.984 209 124.984 189.5 c 2
 124.984 127.5 l 2
 124.984 108.5 134.988 95.5 150.988 95.5 c 0
 166.988 95.5 176.988 109 176.988 128 c 10
EndSplineSet
Fore
SplineSet
277 348 m 25
 177 348 l 25
 177 372 l 18
 177 392 167 404 151 404 c 0
 135 404 125 392 125 372 c 2
 125 278 l 1
 140 292 161 299 184 299 c 0
 241 299 277 253 277 182 c 2
 277 138 l 18
 277 49 229 -7 151 -7 c 0
 73 -7 25 50 25 138 c 10
 25 362 l 2
 25 451 73 507 151 507 c 0
 229 507 277 451 277 362 c 10
 277 348 l 25
177 128 m 10
 177 184 l 6
 177 204 167 216 151 216 c 4
 135 216 125 204 125 184 c 6
 125 128 l 2
 125 109 135 96 151 96 c 0
 167 96 177 109 177 128 c 10
EndSplineSet
Validated: 3073
EndChar

StartChar: seven
Encoding: 55 55 35
Width: 264
Flags: W
HStem: 0 21G<50 159.1> 400 100<10 152>
VStem: 10 246<400 500>
LayerCount: 2
Back
SplineSet
162.328 399.996 m 29
 10 400 l 25
 10 500 l 17
 56.8333 500 219.16 500 265.993 500 c 13
 265.998 399.998 l 22
 158.5 0 l 29
 54.5 0 l 29
 162.328 399.996 l 29
EndSplineSet
Fore
SplineSet
152 400 m 25
 10 400 l 25
 10 500 l 25
 256 500 l 25
 256 400 l 17
 154 0 l 25
 50 0 l 25
 152 400 l 25
EndSplineSet
Validated: 3073
EndChar

StartChar: nine
Encoding: 57 57 36
Width: 297
Flags: W
HStem: -7 103<126.267 175.733> 201 83<89.5 175.774> 404 103<126.267 175.733>
VStem: 25 100<98.786 152 286.63 401.214> 177 100<98.786 222 284.313 400.88>
LayerCount: 2
Back
SplineSet
24.9844 152.5 m 25
 125 152.5 l 25
 125 128 l 18
 125 108 135 95.5 151 95.5 c 0
 167 95.5 177.004 108 177.004 127.5 c 2
 177.004 227.256 l 1
 161.704 213.497 141.625 206.005 118.156 206.005 c 0
 60.7061 206.005 25.0137 251.737 25.0049 322.697 c 2
 25 361.5 l 18
 24.9951 450.25 73.4619 507 151 507 c 0
 228.539 507 277.004 449.75 277.004 361.5 c 10
 277.004 138.5 l 2
 277.004 49.75 228.539 -7 151 -7 c 0
 73.4619 -7 25.0996 49.25 25 138.5 c 10
 24.9844 152.5 l 25
125 372 m 10
 125 311 l 6
 125 291 135 278.5 151 278.5 c 4
 167 278.5 177.004 291 177.004 310.5 c 6
 177.004 372.5 l 2
 177.004 391.5 167 404.5 151 404.5 c 0
 135 404.5 125 391 125 372 c 10
EndSplineSet
Fore
SplineSet
25 152 m 25
 125 152 l 25
 125 128 l 18
 125 108 135 96 151 96 c 0
 167 96 177 108 177 128 c 2
 177 222 l 1
 162 208 141 201 118 201 c 0
 61 201 25 247 25 318 c 2
 25 362 l 18
 25 451 73 507 151 507 c 0
 229 507 277 450 277 362 c 10
 277 138 l 2
 277 49 229 -7 151 -7 c 0
 73 -7 25 49 25 138 c 10
 25 152 l 25
125 372 m 10
 125 316 l 2
 125 296 135 284 151 284 c 0
 167 284 177 296 177 316 c 2
 177 372 l 2
 177 391 167 404 151 404 c 0
 135 404 125 391 125 372 c 10
EndSplineSet
Validated: 3073
EndChar

StartChar: eight
Encoding: 56 56 37
Width: 292
Flags: W
HStem: -7 101<120.718 175.03> 200 100<120.66 176.239> 406 101<120.718 175.03>
VStem: 20 99<97.2 198.174 301.826 402.601> 178 99<97.2 198.609 301.391 402.601>
CounterMasks: 1 e0
LayerCount: 2
Back
SplineSet
22.4805 151.45 m 6
 22.4805 182 44.2314 233.748 81.7598 250 c 5
 44.2334 266.253 22.4805 318 22.4805 348.55 c 6
 22.4805 376.05 l 6
 22.4805 444.5 71.8984 507 150.988 507 c 4
 230.076 507 279.52 444.5 279.52 376.05 c 6
 279.52 376.05 280.5 350.179 279.52 348.55 c 6
 279.52 317 257.767 266.252 220.24 250 c 5
 257.769 233.749 279.52 183 279.52 151.45 c 6
 279.52 123.95 l 6
 279.52 54.5 230.076 -7 150.988 -7 c 4
 71.8984 -7 22.4805 55 22.4805 123.95 c 6
 22.4805 151.45 l 6
124.984 127.5 m 2
 124.984 108.499 134.988 95.5 150.988 95.5 c 0
 166.988 95.5 176.988 109 176.988 128 c 2
 176.988 166 l 2
 176.988 185 166.988 198.5 150.988 198.5 c 0
 134.988 198.5 124.983 185.501 124.984 166.5 c 2
 124.984 127.5 l 2
124.984 333.5 m 2
 124.983 314.499 134.988 301.5 150.988 301.5 c 0
 166.988 301.5 176.988 315 176.988 334 c 2
 176.988 372 l 2
 176.988 391 166.988 404.5 150.988 404.5 c 0
 134.988 404.5 124.984 391.501 124.984 372.5 c 2
 124.984 333.5 l 2
EndSplineSet
Fore
SplineSet
20 158 m 2
 20 189 41 234 79 250 c 1
 41 266 20 311 20 342 c 2
 20 389 l 2
 20 447 70 507 149 507 c 0
 228 507 277 447 277 389 c 2
 277 389 278 344 277 342 c 2
 277 310 256 266 218 250 c 1
 256 234 277 190 277 158 c 2
 277 111 l 2
 277 52 228 -7 149 -7 c 0
 70 -7 20 52 20 111 c 2
 20 158 l 2
119 127 m 2
 119 108 131 94 149 94 c 0
 167 94 178 109 178 128 c 2
 178 166 l 2
 178 185 167 200 149 200 c 0
 131 200 119 186 119 167 c 2
 119 127 l 2
119 333 m 2
 119 314 131 300 149 300 c 0
 167 300 178 315 178 334 c 2
 178 372 l 2
 178 391 167 406 149 406 c 0
 131 406 119 392 119 373 c 2
 119 333 l 2
EndSplineSet
Validated: 3105
EndChar

StartChar: exclam
Encoding: 33 33 38
Width: 154
Flags: W
HStem: -7 114<33.1711 120.829>
VStem: 20 114<6.17114 93.8289> 27 100<170 530>
LayerCount: 2
Back
SplineSet
70 20 m 0
 70 36.5596 83.8877 50 101 50 c 0
 118.112 50 132 36.5596 132 20 c 0
 132 3.44043 118.112 -10 101 -10 c 0
 83.8877 -10 70 3.44043 70 20 c 0
87.8418 264 m 0
 87.8418 355 91 440 76 520 c 9
 121 565 l 17
 109.264 482.844 103 418.532 103 265 c 0
 103 226 104 187 119 157 c 9
 82 135 l 17
 87 177 88 221.034 87.8418 264 c 0
EndSplineSet
Fore
SplineSet
27 530 m 29xa0
 127 530 l 29
 127 170 l 29
 27 170 l 29
 27 530 l 29xa0
20 50 m 0xc0
 20 81 46 107 77 107 c 0
 108 107 134 81 134 50 c 0
 134 19 108 -7 77 -7 c 0
 46 -7 20 19 20 50 c 0xc0
EndSplineSet
Validated: 3073
EndChar

StartChar: quotedbl
Encoding: 34 34 39
Width: 295
Flags: W
HStem: 350 150<25 105 160 240>
VStem: 25 80<350 385> 160 80<350 385>
LayerCount: 2
Back
SplineSet
162 418.882 m 2
 158.983 497 l 2
 158.423 511.517 165.488 523.104 177 528.5 c 2
 217.173 547.799 l 2
 228.04 553.02 237.716 551 246.05 544.666 c 0
 252.158 540.022 255.684 530.007 253.383 519.001 c 2
 233 421.5 l 2
 230.822 411.167 225.425 404.314 215.999 399.834 c 2
 189 387 l 2
 179.176 382.021 167.8 387.683 164.6 394.482 c 0
 161.709 400.625 162.343 410.014 162 418.882 c 2
22 418.882 m 2
 18.9834 497 l 2
 18.4228 511.516 25.4883 523.104 37 528.5 c 2
 77.1729 547.799 l 2
 88.04 553.02 97.7158 551 106.05 544.666 c 0
 112.158 540.022 115.684 530.007 113.383 519.001 c 2
 93 421.5 l 2
 90.8223 411.167 85.4248 404.314 75.999 399.834 c 2
 49 387 l 2
 39.1758 382.021 27.7998 387.683 24.5996 394.482 c 0
 21.709 400.625 22.3425 410.013 22 418.882 c 2
EndSplineSet
Fore
SplineSet
240 350 m 29
 160 350 l 29
 160 500 l 29
 270 500 l 29
 240 350 l 29
105 350 m 25
 25 350 l 25
 25 500 l 25
 135 500 l 25
 105 350 l 25
EndSplineSet
Validated: 3073
PairPos2: "'kern' Horizontal Kerning lookup 0-1" afii57670 dx=10 dy=0 dh=10 dv=0 dx=0 dy=0 dh=0 dv=0
PairPos2: "'kern' Horizontal Kerning lookup 0-1" afii57667 dx=10 dy=0 dh=10 dv=0 dx=0 dy=0 dh=0 dv=0
PairPos2: "'kern' Horizontal Kerning lookup 0-1" afii57665 dx=-20 dy=0 dh=-20 dv=0 dx=0 dy=0 dh=0 dv=0
EndChar

StartChar: percent
Encoding: 37 37 40
Width: 345
Flags: W
HStem: -7 183<209.87 304.13> 0 21G<20 133> 324 183<40.8698 135.13> 480 20G<212 325>
VStem: 25 126<339.157 491.843> 194 126<8.15698 160.843>
LayerCount: 2
Back
SplineSet
200 500 m 25
 305 499.996 l 29
 105 0 l 29
 0 0 l 25
 200 500 l 25
10.2998 444.3 m 0
 10.2998 478.91 38.3896 507 73 507 c 0
 107.61 507 135.7 478.91 135.7 444.3 c 0
 135.7 409.689 107.61 381.6 73 381.6 c 0
 38.3896 381.6 10.2998 409.689 10.2998 444.3 c 0
169.3 55.7002 m 4
 169.3 90.3105 197.39 118.4 232 118.4 c 4
 266.61 118.4 294.7 90.3105 294.7 55.7002 c 4
 294.7 21.0898 266.61 -7 232 -7 c 4
 197.39 -7 169.3 21.0898 169.3 55.7002 c 4
EndSplineSet
Fore
SplineSet
320 103 m 2x8c
 320 66 l 18
 320 21 296 -7 257 -7 c 0
 218 -7 194 21 194 66 c 2
 194 103 l 2
 194 148 218 176 257 176 c 0
 296 176 320 148 320 103 c 2x8c
151 434 m 2
 151 397 l 18
 151 352 127 324 88 324 c 0
 49 324 25 352 25 397 c 2
 25 434 l 2
 25 479 49 507 88 507 c 0x2c
 127 507 151 479 151 434 c 2
220 500 m 25x5c
 325 500 l 25
 125 0 l 25
 20 0 l 25
 220 500 l 25x5c
EndSplineSet
Validated: 3073
EndChar

StartChar: quotesingle
Encoding: 39 39 41
Width: 160
Flags: W
HStem: 350 150<25 105>
VStem: 25 80<350 385>
LayerCount: 2
Back
SplineSet
125 350 m 25
 25 350 l 25
 25 500 l 25
 125 500 l 29
 125 350 l 25
EndSplineSet
Fore
SplineSet
105 350 m 29
 25 350 l 25
 25 500 l 25
 135 500 l 25
 105 350 l 29
EndSplineSet
Validated: 3073
EndChar

StartChar: parenleft
Encoding: 40 40 42
Width: 180
Flags: W
HStem: 0 21G<51 180> 480 20G<51 180>
VStem: 10 100<111.347 388.454>
LayerCount: 2
Back
SplineSet
170.035 500 m 1
 130.69 424.979 110 340.004 110 250 c 0
 110 159.996 130.69 75.0205 170.035 0 c 1
 70.0352 0 l 1
 31.6553 75.0205 10 159.996 10 250 c 0
 10 340.004 31.6553 424.979 70.0352 500 c 1
 170.035 500 l 1
EndSplineSet
Fore
SplineSet
180 500 m 5
 137 425 110 340 110 250 c 4
 110 160 137 74 180 0 c 5
 70 0 l 5
 32 75 10 160 10 250 c 4
 10 340 32 425 70 500 c 5
 180 500 l 5
EndSplineSet
Validated: 3073
EndChar

StartChar: parenright
Encoding: 41 41 43
Width: 180
Flags: W
HStem: 0 21G<0 129> 480 20G<0 129>
VStem: 70 100<111.347 388.454>
LayerCount: 2
Back
SplineSet
150 -105.155 m 22
 149.814 -125.838 146.936 -133.291 140.079 -140.148 c 4
 133.222 -147.005 122.506 -150.005 105.15 -150.005 c 6
 -43 -150.005 l 29
 -43 -50.0049 l 29
 18.6504 -50.0049 l 6
 30.7998 -50.0049 38.3008 -47.9053 43.1006 -43.1055 c 4
 47.9004 -38.3047 50 -32.0059 50 -18.6104 c 14
 50 518.605 l 6
 50 532.001 47.9004 538.3 43.1006 543.101 c 4
 38.3008 547.9 30.7998 550 18.6504 550 c 6
 -43 550 l 29
 -43 650 l 29
 105.15 650 l 6
 122.506 650 133.222 647 140.079 640.144 c 4
 146.936 633.286 150 624.288 150 605.15 c 6
 150 -105.155 l 22
EndSplineSet
Fore
SplineSet
0 500 m 5
 110 500 l 5
 148 425 170 340 170 250 c 4
 170 160 148 75 110 0 c 5
 0 0 l 5
 43 74 70 160 70 250 c 4
 70 340 43 425 0 500 c 5
EndSplineSet
Validated: 3073
EndChar

StartChar: asterisk
Encoding: 42 42 44
Width: 349
VWidth: 0
Flags: W
HStem: 103 290
VStem: 22 306
LayerCount: 2
Back
SplineSet
156.612 329.902 m 1
 190.189 354.298 l 1
 248.381 274.205 l 1
 214.214 249.382 l 1
 247.793 224.986 l 1
 189.603 144.893 l 1
 155.436 169.716 l 1
 142.61 130.242 l 1
 48.4551 160.835 l 1
 61.5057 201 l 1
 5 201 l 1
 5 300 l 1
 62.2325 300 l 1
 49.4062 339.474 l 5
 143.562 370.066 l 5
 156.612 329.902 l 1
5 225 m 5
 260 225 l 5
 260 126 l 5
 5 126 l 5
 5 225 l 5
5 375 m 5
 260 375 l 5
 260 276 l 5
 5 276 l 5
 5 375 l 5
EndSplineSet
Fore
SplineSet
220 310 m 5
 294 347 l 5
 328 243 l 5
 247 227 l 5
 302 167 l 5
 214 103 l 5
 176 176 l 5
 135 104 l 5
 47 168 l 5
 106 228 l 5
 22 244 l 5
 56 347 l 5
 133 310 l 5
 121 393 l 5
 229 393 l 5
 220 310 l 5
EndSplineSet
Validated: 3073
EndChar

StartChar: plus
Encoding: 43 43 45
Width: 355
VWidth: 0
Flags: W
HStem: 201 99<40 128 227 315>
VStem: 128 99<113 201 300 388>
LayerCount: 2
Back
SplineSet
50 225 m 1
 305 225 l 1
 305 126 l 1
 50 126 l 1
 50 225 l 1
50 375 m 1
 305 375 l 1
 305 276 l 1
 50 276 l 1
 50 375 l 1
EndSplineSet
Fore
SplineSet
227 300 m 1
 315 300 l 1
 315 201 l 1
 227 201 l 1
 227 113 l 5
 128 113 l 5
 128 201 l 1
 40 201 l 1
 40 300 l 1
 128 300 l 1
 128 388 l 1
 227 388 l 1
 227 300 l 1
EndSplineSet
Validated: 3073
EndChar

StartChar: comma
Encoding: 44 44 46
Width: 150
Flags: W
HStem: -100 200<20 95>
VStem: 20 105<53.3333 100> 20 75<-100 -53.3333>
LayerCount: 2
Back
SplineSet
0 100 m 1
 100 100 l 5
 100 -100 l 1
 0 -100 l 1
 0 100 l 1
EndSplineSet
Fore
SplineSet
20 100 m 1xc0
 125 100 l 1xc0
 95 -100 l 1
 20 -100 l 1xa0
 20 100 l 1xc0
EndSplineSet
Validated: 3073
EndChar

StartChar: hyphen
Encoding: 45 45 47
Width: 270
VWidth: 0
Flags: W
HStem: 201 99<25 245>
VStem: 25 220<201 300>
LayerCount: 2
Fore
SplineSet
25 300 m 1
 245 300 l 1
 245 201 l 1
 25 201 l 1
 25 300 l 1
EndSplineSet
Validated: 3073
PairPos2: "'kern' Horizontal Kerning lookup 0-1" afii57686 dx=-5 dy=0 dh=-5 dv=0 dx=0 dy=0 dh=0 dv=0
PairPos2: "'kern' Horizontal Kerning lookup 0-1" afii57676 dx=-20 dy=0 dh=-20 dv=0 dx=0 dy=0 dh=0 dv=0
PairPos2: "'kern' Horizontal Kerning lookup 0-1" afii57675 dx=10 dy=0 dh=10 dv=0 dx=0 dy=0 dh=0 dv=0
PairPos2: "'kern' Horizontal Kerning lookup 0-1" afii57673 dx=5 dy=0 dh=5 dv=0 dx=0 dy=0 dh=0 dv=0
PairPos2: "'kern' Horizontal Kerning lookup 0-1" afii57670 dx=-25 dy=0 dh=-25 dv=0 dx=0 dy=0 dh=0 dv=0
PairPos2: "'kern' Horizontal Kerning lookup 0-1" afii57667 dx=-25 dy=0 dh=-25 dv=0 dx=0 dy=0 dh=0 dv=0
PairPos2: "'kern' Horizontal Kerning lookup 0-1" afii57665 dx=-10 dy=0 dh=-10 dv=0 dx=0 dy=0 dh=0 dv=0
PairPos2: "'kern' Horizontal Kerning lookup 0-1" afii57664 dx=-5 dy=0 dh=-5 dv=0 dx=0 dy=0 dh=0 dv=0
EndChar

StartChar: period
Encoding: 46 46 48
Width: 154
Flags: W
HStem: -7 114<33.1711 120.829>
VStem: 20 114<6.17114 93.8289>
LayerCount: 2
Back
SplineSet
-7 50 m 4
 -7 81.4639 18.5361 107 50 107 c 4
 81.4639 107 107 81.4639 107 50 c 4
 107 18.5361 81.4639 -7 50 -7 c 4
 18.5361 -7 -7 18.5361 -7 50 c 4
EndSplineSet
Fore
SplineSet
20 50 m 0
 20 81 46 107 77 107 c 0
 108 107 134 81 134 50 c 0
 134 19 108 -7 77 -7 c 0
 46 -7 20 19 20 50 c 0
EndSplineSet
Validated: 3073
EndChar

StartChar: slash
Encoding: 47 47 49
Width: 236
Flags: W
HStem: 0 21G<0 108.36> 480 20G<128.64 237>
VStem: 0 237
LayerCount: 2
Back
SplineSet
112.498 453 m 29
 209.092 427.114 l 29
 115.918 79.3809 l 29
 19.3262 105.263 l 29
 112.498 453 l 29
EndSplineSet
Fore
SplineSet
134 500 m 25
 237 500 l 29
 103 0 l 29
 0 0 l 25
 134 500 l 25
EndSplineSet
Validated: 3073
EndChar

StartChar: colon
Encoding: 58 58 50
Width: 154
Flags: W
HStem: -7 114<33.1711 120.829> 243 114<33.1711 120.829>
VStem: 20 114<6.17114 93.8289 256.171 343.829>
LayerCount: 2
Back
SplineSet
70 338 m 0
 70 354.56 83.8877 368 101 368 c 0
 118.112 368 132 354.56 132 338 c 0
 132 321.44 118.112 308 101 308 c 0
 83.8877 308 70 321.44 70 338 c 0
70 20 m 4
 70 36.5596 83.8877 50 101 50 c 4
 118.112 50 132 36.5596 132 20 c 4
 132 3.44043 118.112 -10 101 -10 c 4
 83.8877 -10 70 3.44043 70 20 c 4
EndSplineSet
Fore
SplineSet
20 300 m 4
 20 331 46 357 77 357 c 4
 108 357 134 331 134 300 c 4
 134 269 108 243 77 243 c 4
 46 243 20 269 20 300 c 4
20 50 m 0
 20 81 46 107 77 107 c 0
 108 107 134 81 134 50 c 0
 134 19 108 -7 77 -7 c 0
 46 -7 20 19 20 50 c 0
EndSplineSet
Validated: 3073
EndChar

StartChar: semicolon
Encoding: 59 59 51
Width: 154
Flags: W
HStem: 243 114<33.1711 120.829>
VStem: 20 114<58.8235 100 256.171 343.829> 25 75<-100 -53.3333>
LayerCount: 2
Back
SplineSet
70 344 m 0
 70 363.872 86.665 380 107.2 380 c 0
 127.734 380 144.4 363.872 144.4 344 c 0
 144.4 324.128 127.734 308 107.2 308 c 0
 86.665 308 70 324.128 70 344 c 0
70 26 m 4
 70 45.8711 86.665 62 107.2 62 c 4
 127.734 62 148.533 44.333 144.201 18.001 c 4
 135.897 -32.4688 115.2 -79.667 79.2002 -124.5 c 13
 70.7998 -119.871 l 21
 80.3994 -100.271 95.5332 -48.0332 95.5332 -8.19141 c 5
 80.707 -3.45117 70 10.0713 70 26 c 4
EndSplineSet
Fore
SplineSet
25 100 m 1xa0
 130 100 l 1
 100 -100 l 1
 25 -100 l 1
 25 100 l 1xa0
20 300 m 0xc0
 20 331 46 357 77 357 c 0
 108 357 134 331 134 300 c 0
 134 269 108 243 77 243 c 0
 46 243 20 269 20 300 c 0xc0
EndSplineSet
Validated: 3073
EndChar

StartChar: less
Encoding: 60 60 52
Width: 246
Flags: W
HStem: 0 21G<123.28 247> 480 20G<123.28 247>
VStem: 0 247
LayerCount: 2
Back
SplineSet
0 250 m 25
 133.971 450 l 29
 253.975 449.996 l 29
 120 250 l 25
 253.975 50.0039 l 25
 133.971 50 l 25
 0 250 l 25
199.709 548.529 m 29
 282.912 493.049 l 29
 83.2002 193.524 l 29
 0 249 l 29
 199.709 548.529 l 29
EndSplineSet
Fore
SplineSet
0 250 m 25
 134 500 l 25
 247 500 l 25
 113 250 l 25
 247 0 l 25
 134 0 l 25
 0 250 l 25
EndSplineSet
Validated: 3073
EndChar

StartChar: greater
Encoding: 62 62 53
Width: 246
Flags: W
HStem: 0 21G<0 123.72> 480 20G<0 123.72>
VStem: 0 247
LayerCount: 2
Back
SplineSet
342.099 202.563 m 2
 91.9072 35.7637 l 6
 75.5947 25.458 56.8271 36.0039 60.4551 57.0488 c 6
 69.667 108.881 l 6
 73.2432 129.01 84.0762 140.959 98.9512 147.68 c 6
 297.742 237.5 l 2
 308.789 243.218 310.65 258.289 297.742 265 c 2
 98.9521 354.814 l 2
 84.0762 361.535 73.2441 373.484 69.668 393.613 c 2
 60.457 445.444 l 2
 56.8291 466.49 75.5957 477.036 91.9082 466.73 c 2
 342.1 299.931 l 2
 390.393 267.734 397.454 239.468 342.099 202.563 c 2
EndSplineSet
Fore
SplineSet
247 250 m 25
 113 0 l 25
 0 0 l 25
 134 250 l 25
 0 500 l 25
 113 500 l 25
 247 250 l 25
EndSplineSet
Validated: 3073
EndChar

StartChar: equal
Encoding: 61 61 54
Width: 355
VWidth: 0
Flags: W
HStem: 126 99<50 305> 276 99<50 305>
VStem: 50 255<126 225 276 375>
LayerCount: 2
Fore
SplineSet
50 225 m 1
 305 225 l 1
 305 126 l 1
 50 126 l 1
 50 225 l 1
50 375 m 1
 305 375 l 1
 305 276 l 1
 50 276 l 1
 50 375 l 1
EndSplineSet
Validated: 3073
EndChar

StartChar: question
Encoding: 63 63 55
Width: 292
Flags: W
HStem: -7 114<100.171 187.829> 148 144<95 172.085> 434 103<126.267 175.733>
VStem: 25 100<388 432.601> 87 114<6.17114 93.8289> 95 100<148 236> 177 100<297.219 432.601>
LayerCount: 2
Back
SplineSet
194.714 252 m 2
 194.714 148.3 l 1
 94.7295 148.3 l 25
 95 301.995 l 25
 130.188 301.995 l 18
 170.75 301.995 176.987 324.495 176.988 360.495 c 2
 176.988 372 l 2
 176.988 391 166.988 404.5 150.988 404.5 c 0
 134.988 404.5 124.984 391.501 124.984 372.5 c 2
 124.984 357.5 l 1
 25 357.5 l 25
 25 388.692 l 2
 25 446.875 73.4492 507 150.988 507 c 0
 228.525 507 277 446.875 277 388.692 c 2
 277 388.692 277.961 343.179 277 341.55 c 2
 277 310 255.673 266.252 218.883 250 c 5
86.7139 50 m 0
 86.7139 81.4639 112.25 107 143.714 107 c 0
 175.178 107 200.714 81.4639 200.714 50 c 0
 200.714 18.5361 175.178 -7 143.714 -7 c 0
 112.25 -7 86.7139 18.5361 86.7139 50 c 0
EndSplineSet
Fore
SplineSet
194 236 m 9xf2
 195 148 l 1
 95 148 l 25
 95 292 l 25xe4
 130 292 l 18
 171 292 177 314 177 350 c 2
 177 402 l 2
 177 421 167 434 151 434 c 0
 135 434 125 421 125 402 c 2
 125 388 l 1
 25 388 l 25
 25 419 l 2
 25 477 73 537 151 537 c 0
 229 537 277 477 277 419 c 2
 277 419 278 333 277 332 c 2
 277 280 232 236 194 236 c 9xf2
87 50 m 0xe8
 87 81 113 107 144 107 c 0
 175 107 201 81 201 50 c 0
 201 19 175 -7 144 -7 c 0
 113 -7 87 19 87 50 c 0xe8
EndSplineSet
Validated: 3105
EndChar

StartChar: backslash
Encoding: 92 92 56
Width: 236
Flags: W
HStem: 0 21G<128.64 237> 480 20G<0 108.36>
VStem: 0 237
LayerCount: 2
Back
SplineSet
199.061 251.733 m 4
 125.458 130.247 47.4654 4.0041 0 -55 c 13
 61.6641 -39.2646 l 21
 86.2608 28.0744 164.915 163.469 215.301 248.444 c 4
 290.317 369.759 369.971 496.165 418.195 555 c 13
 356.39 539.831 l 21
 331.009 472.275 250.219 336.261 199.061 251.733 c 4
EndSplineSet
Fore
SplineSet
103 500 m 25
 237 0 l 25
 134 0 l 29
 0 500 l 29
 103 500 l 25
EndSplineSet
Validated: 3073
EndChar

StartChar: bracketleft
Encoding: 91 91 57
Width: 218
Flags: MW
HStem: 0 100<125 208> 400 100<125 208>
VStem: 25 100<100 400>
LayerCount: 2
Back
SplineSet
81.791 433.812 m 2
 82.2227 455.632 85.9053 473.869 99.2461 485.274 c 0
 111.793 496 127.475 500 146.702 500 c 2
122.5 486 m 2
 122.5 512.496 136.5 519.5 157 519.5 c 2
 191.001 519.5 l 2
 205.002 519.5 215.834 528.425 219.001 542.5 c 2
 228.001 582.5 l 2
 231.44 597.788 221 609.5 204.501 609.5 c 2
 75.6211 609.5 l 2
 59.1211 609.5 48.6777 597.786 52.1211 582.5 c 6
 55.5 567.5 l 2
 59.999 547.5 64.002 537.501 64.002 511.005 c 2
 64.002 1.49512 l 2
 64.002 -25.001 59.999 -35 55.5 -55 c 2
 52.1211 -70 l 2
 48.6777 -85.2861 59.1211 -97 75.6211 -97 c 2
 204.501 -97 l 2
 221 -97 231.44 -85.2881 228.001 -70 c 2
 219.001 -30 l 2
 215.834 -15.9248 205.002 -7 191.001 -7 c 2
 157 -7 l 2
 136.5 -7 122.5 0.00390625 122.5 26.5 c 2
 122.5 486 l 2
EndSplineSet
Fore
SplineSet
125 100 m 25
 208 100 l 25
 208 0 l 25
 70 0 l 2
 53 0 42 3 35 10 c 0
 28 17 25 24 25 45 c 10
 25 455 l 2
 25 474 28 483 35 490 c 0
 42 497 53 500 70 500 c 2
 208 500 l 25
 208 400 l 25
 125 400 l 29
 125 100 l 25
EndSplineSet
Validated: 3073
EndChar

StartChar: bracketright
Encoding: 93 93 58
Width: 218
Flags: MW
HStem: 0 100<10 93> 400 100<10 93>
VStem: 93 100<100 400>
LayerCount: 2
Fore
SplineSet
93 100 m 25
 93 400 l 25
 10 400 l 25
 10 500 l 25
 148 500 l 2
 165 500 176 497 183 490 c 0
 190 483 193 474 193 455 c 2
 193 45 l 18
 193 24 190 17 183 10 c 0
 176 3 165 0 148 0 c 2
 10 0 l 25
 10 100 l 25
 93 100 l 25
EndSplineSet
Validated: 3073
EndChar

StartChar: grave
Encoding: 96 96 59
Width: 155
Flags: W
HStem: 350 150<50 130>
VStem: 50 80<350 385>
LayerCount: 2
Back
SplineSet
116.341 474.224 m 0
 109.214 493.179 90.7168 537.104 129 560.31 c 9
 44 581.81 l 17
 67.5 550.81 84.5 518.81 101.301 472.977 c 0
 110.646 447.486 116.429 421.374 114.901 392.757 c 9
 168.899 377 l 17
 147.455 411.818 129.292 439.774 116.341 474.224 c 0
EndSplineSet
Fore
SplineSet
50 350 m 25
 20 500 l 25
 130 500 l 25
 130 350 l 25
 50 350 l 25
EndSplineSet
Validated: 3073
EndChar

StartChar: afii57645
Encoding: 1470 1470 60
Width: 280
VWidth: 0
Flags: W
HStem: 401 99<25 245>
VStem: 25 220<401 500>
LayerCount: 2
Fore
SplineSet
25 500 m 1
 245 500 l 1
 245 401 l 1
 25 401 l 1
 25 500 l 1
EndSplineSet
Validated: 3073
PairPos2: "'kern' Horizontal Kerning lookup 0-1" afii57676 dx=15 dy=0 dh=15 dv=0 dx=0 dy=0 dh=0 dv=0
PairPos2: "'kern' Horizontal Kerning lookup 0-1" afii57665 dx=-15 dy=0 dh=-15 dv=0 dx=0 dy=0 dh=0 dv=0
PairPos2: "'kern' Horizontal Kerning lookup 0-1" afii57670 dx=15 dy=0 dh=15 dv=0 dx=0 dy=0 dh=0 dv=0
PairPos2: "'kern' Horizontal Kerning lookup 0-1" afii57667 dx=15 dy=0 dh=15 dv=0 dx=0 dy=0 dh=0 dv=0
EndChar

StartChar: uni0000
Encoding: 0 0 61
Width: 600
Flags: W
HStem: -100 100<200 400> 500 100<200 400>
VStem: 100 100<0 500> 400 100<0 500>
LayerCount: 2
Back
SplineSet
150 550 m 5
 150 -50 l 5
 550 -50 l 5
 550 550 l 5
 150 550 l 5
100 600 m 5
 600 600 l 5
 600 -100 l 5
 100 -100 l 5
 100 600 l 5
EndSplineSet
Fore
SplineSet
200 500 m 1
 200 0 l 1
 400 0 l 5
 400 500 l 5
 200 500 l 1
100 600 m 1
 500 600 l 5
 500 -100 l 5
 100 -100 l 1
 100 600 l 1
EndSplineSet
Validated: 3073
EndChar

StartChar: A
Encoding: 65 65 62
Width: 600
Flags: W
HStem: -100 100<200 400> 500 100<200 400>
VStem: 100 100<0 500> 400 100<0 500>
LayerCount: 2
Fore
SplineSet
200 500 m 1
 200 0 l 1
 400 0 l 5
 400 500 l 5
 200 500 l 1
100 600 m 1
 500 600 l 5
 500 -100 l 5
 100 -100 l 1
 100 600 l 1
EndSplineSet
Validated: 3073
EndChar

StartChar: SF110000
Encoding: 9474 9474 63
Width: 650
Flags: W
VStem: 300 50<-300 700>
LayerCount: 2
Fore
SplineSet
350 700 m 5
 350 -300 l 5
 300 -300 l 1
 300 700 l 1
 350 700 l 5
EndSplineSet
Validated: 3073
EndChar

StartChar: afii00208
Encoding: 8213 8213 65
Width: 560
VWidth: 0
Flags: W
HStem: 201 99<20 540>
LayerCount: 2
Back
SplineSet
517.119 254 m 0
 444.403 254 253.7 251.5 92 239 c 9
 47 284 l 17
 263.15 271.5 481.534 269 621.2 268.996 c 0
 693.916 268.996 884.619 271.496 1046.32 283.996 c 9
 1091.32 238.996 l 17
 875.169 251.496 656.785 253.996 517.119 254 c 0
1072.85 221.997 m 6
 90.9424 221.997 l 2
 75.9619 221.997 59.0244 230.922 55.6357 244.997 c 2
 48.8564 273 l 2
 45.1562 288.284 56.3467 300 74.001 300 c 2
 1086.4 300 l 6
 1107.27 300 1118.72 291.15 1115.29 274 c 6
 1110.3 248.997 l 6
 1106.98 232.611 1094.25 221.997 1072.85 221.997 c 6
EndSplineSet
Fore
SplineSet
20 300 m 1
 540 300 l 5
 540 201 l 5
 20 201 l 1
 20 300 l 1
EndSplineSet
Validated: 3073
EndChar

StartChar: emdash
Encoding: 8212 8212 66
Width: 460
VWidth: 0
Flags: W
HStem: 201 99<20 440>
LayerCount: 2
Back
SplineSet
388.295 254 m 0
 337.614 254 204.7 251.5 92 239 c 13
 47 284 l 17
 197.65 271.5 349.857 269 447.2 268.996 c 0
 497.881 268.996 630.795 271.496 743.495 283.996 c 9
 788.495 238.996 l 21
 637.846 251.496 485.638 253.996 388.295 254 c 0
751.846 221.997 m 2
 90.9424 221.997 l 2
 75.9619 221.997 59.0244 230.922 55.6357 244.997 c 2
 48.8564 273 l 2
 45.1562 288.284 56.3467 300 74.001 300 c 2
 765.4 300 l 2
 786.265 300 797.715 291.15 794.29 274 c 2
 789.296 248.997 l 2
 785.98 232.611 773.246 221.997 751.846 221.997 c 2
EndSplineSet
Fore
SplineSet
20 300 m 1
 440 300 l 5
 440 201 l 5
 20 201 l 1
 20 300 l 1
EndSplineSet
Validated: 3073
EndChar

StartChar: endash
Encoding: 8211 8211 67
Width: 360
VWidth: 0
Flags: W
HStem: 201 99<20 340>
VStem: 20 320<201 300>
LayerCount: 2
Back
SplineSet
283.399 254 m 0x40
 250.654 254 164.778 251.5 91.9629 239 c 9
 47 284 l 21x80
 144.335 271.5 242.676 269 305.568 268.996 c 0
 338.313 268.996 424.189 271.496 497.005 283.996 c 13
 541.968 238.996 l 17
 444.634 251.496 346.292 253.996 283.399 254 c 0x40
EndSplineSet
Fore
SplineSet
20 300 m 1
 340 300 l 1
 340 201 l 1
 20 201 l 1
 20 300 l 1
EndSplineSet
Validated: 3073
EndChar
